<?xml version="1.0" encoding="UTF-8"?>
<svg width="149px" height="93px" viewBox="0 0 149 93" version="1.1" xmlns="http://www.w3.org/2000/svg" xmlns:xlink="http://www.w3.org/1999/xlink">
    <!-- Generator: Sketch 52.2 (67145) - http://www.bohemiancoding.com/sketch -->
    <title>Group 55</title>
    <desc>Created with Sketch.</desc>
    <defs>
        <polygon id="path-1" points="0 92.2457 148.116 92.2457 148.116 -0.0003 0 -0.0003"></polygon>
    </defs>
    <g id="Year-in-review" stroke="none" stroke-width="1" fill="none" fill-rule="evenodd">
        <g id="Group-55">
            <path d="M20.4908,63.8824 L22.2618,63.8824 C23.8758,63.8824 25.2728,63.3634 25.2728,62.1244 C25.2728,60.6694 24.2068,59.8924 22.5218,59.8924 L20.4908,59.8924 L20.4908,63.8824 Z M20.4908,58.9984 L22.4928,58.9984 C23.4008,58.9984 24.5668,58.4664 24.5668,57.0834 C24.5668,56.0174 23.4438,55.5854 22.0748,55.5854 L20.4908,55.5854 L20.4908,58.9984 Z M23.9048,59.3444 C25.4168,59.6474 26.3098,60.7134 26.3098,62.1244 C26.3098,64.0264 24.4238,64.7754 22.2618,64.7754 L19.4828,64.7754 L19.4828,54.6924 L22.0748,54.6924 C24.0058,54.6924 25.6038,55.3554 25.6038,57.0834 C25.6038,58.1924 24.9278,59.1004 23.9048,59.3164 L23.9048,59.3444 Z" id="Fill-1" fill="#FEFEFE"></path>
            <path d="M29.8683,59.1715 L31.5533,59.1715 C33.1963,59.1715 34.0883,58.5375 34.0883,57.3575 C34.0883,56.1615 33.1523,55.5855 31.5533,55.5855 L29.8683,55.5855 L29.8683,59.1715 Z M31.7983,60.0655 L29.8683,60.0655 L29.8683,64.7755 L28.8603,64.7755 L28.8603,54.6925 L31.5533,54.6925 C33.8003,54.6925 35.1253,55.5275 35.1253,57.3575 C35.1253,58.7685 34.3333,59.6475 32.8643,59.9495 L35.7163,64.7755 L34.5933,64.7755 L31.7983,60.0655 Z" id="Fill-3" fill="#FEFEFE"></path>
            <mask id="mask-2" fill="white">
                <use xlink:href="#path-1"></use>
            </mask>
            <g id="Clip-6"></g>
            <polygon id="Fill-5" fill="#FEFEFE" mask="url(#mask-2)" points="37.937 64.7747 38.945 64.7747 38.945 54.6917 37.937 54.6917"></polygon>
            <path d="M46.7623,56.1324 C46.7623,56.1324 46.0993,55.4414 44.7313,55.4414 C43.4923,55.4414 42.6283,56.1754 42.6283,57.1264 C42.6283,58.3644 43.6943,58.7104 44.7883,59.2434 C46.2003,59.9354 47.6413,60.4254 47.6413,62.3694 C47.6413,63.7674 46.4893,64.9474 44.5873,64.9474 C42.5273,64.9474 41.3893,63.6524 41.3893,63.6524 L42.0803,63.0464 C42.0803,63.0464 42.9453,64.0264 44.5873,64.0264 C45.8403,64.0264 46.6043,63.2914 46.6043,62.3694 C46.6043,61.0444 45.3943,60.5984 44.3273,60.0794 C42.9883,59.4164 41.5913,58.8834 41.5913,57.1264 C41.5913,55.6564 42.8733,54.5194 44.7313,54.5194 C46.4893,54.5194 47.4253,55.4984 47.4253,55.4984 L46.7623,56.1324 Z" id="Fill-7" fill="#FEFEFE" mask="url(#mask-2)"></path>
            <path d="M51.0944,63.8824 L52.8654,63.8824 C54.4794,63.8824 55.8764,63.3634 55.8764,62.1244 C55.8764,60.6694 54.8104,59.8924 53.1254,59.8924 L51.0944,59.8924 L51.0944,63.8824 Z M51.0944,58.9984 L53.0964,58.9984 C54.0044,58.9984 55.1704,58.4664 55.1704,57.0834 C55.1704,56.0174 54.0474,55.5854 52.6784,55.5854 L51.0944,55.5854 L51.0944,58.9984 Z M54.5084,59.3444 C56.0204,59.6474 56.9134,60.7134 56.9134,62.1244 C56.9134,64.0264 55.0274,64.7754 52.8654,64.7754 L50.0864,64.7754 L50.0864,54.6924 L52.6784,54.6924 C54.6094,54.6924 56.2074,55.3554 56.2074,57.0834 C56.2074,58.1924 55.5314,59.1004 54.5084,59.3164 L54.5084,59.3444 Z" id="Fill-8" fill="#FEFEFE" mask="url(#mask-2)"></path>
            <path d="M62.9918,55.9019 L60.7018,61.2029 L65.2678,61.2029 L63.0208,55.9019 L62.9918,55.9019 Z M59.1608,64.7749 L58.1088,64.7749 L62.4728,54.6919 L63.5398,54.6919 L67.8608,64.7749 L66.7948,64.7749 L65.6568,62.0959 L60.3128,62.0959 L59.1608,64.7749 Z" id="Fill-9" fill="#FEFEFE" mask="url(#mask-2)"></path>
            <polygon id="Fill-10" fill="#FEFEFE" mask="url(#mask-2)" points="77.2672 63.6227 77.2672 54.6917 78.2752 54.6917 78.2752 64.7747 76.9072 64.7747 70.8862 55.8587 70.8572 55.8587 70.8572 64.7747 69.8492 64.7747 69.8492 54.6917 71.2172 54.6917 77.2382 63.6227"></polygon>
            <polygon id="Fill-11" fill="#FEFEFE" mask="url(#mask-2)" points="87.9464 63.8824 87.9464 64.7754 81.5224 64.7754 81.5224 54.6924 87.7734 54.6924 87.7734 55.5854 82.5304 55.5854 82.5304 59.0854 87.4274 59.0854 87.4274 59.9784 82.5304 59.9784 82.5304 63.8824"></polygon>
            <polygon id="Fill-12" fill="#FEFEFE" mask="url(#mask-2)" points="102.5055 63.6227 102.5055 54.6917 103.5135 54.6917 103.5135 64.7747 102.1455 64.7747 96.1245 55.8587 96.0955 55.8587 96.0955 64.7747 95.0875 64.7747 95.0875 54.6917 96.4555 54.6917 102.4765 63.6227"></polygon>
            <path d="M111.2765,55.441 C108.9145,55.441 107.1425,57.256 107.1425,59.734 C107.1425,62.212 108.9145,64.026 111.2765,64.026 C113.6385,64.026 115.4105,62.212 115.4105,59.734 C115.4105,57.256 113.6385,55.441 111.2765,55.441 M111.2765,64.948 C108.3235,64.948 106.1055,62.744 106.1055,59.734 C106.1055,56.723 108.3235,54.519 111.2765,54.519 C114.2295,54.519 116.4475,56.723 116.4475,59.734 C116.4475,62.744 114.2295,64.948 111.2765,64.948" id="Fill-13" fill="#FEFEFE" mask="url(#mask-2)"></path>
            <path d="M120.0553,59.1715 L121.7413,59.1715 C123.3823,59.1715 124.2763,58.5375 124.2763,57.3575 C124.2763,56.1615 123.3393,55.5855 121.7413,55.5855 L120.0553,55.5855 L120.0553,59.1715 Z M121.9853,60.0655 L120.0553,60.0655 L120.0553,64.7755 L119.0473,64.7755 L119.0473,54.6925 L121.7413,54.6925 C123.9883,54.6925 125.3133,55.5275 125.3133,57.3575 C125.3133,58.7685 124.5203,59.6475 123.0513,59.9495 L125.9033,64.7755 L124.7803,64.7755 L121.9853,60.0655 Z" id="Fill-14" fill="#FEFEFE" mask="url(#mask-2)"></path>
            <polygon id="Fill-15" fill="#FEFEFE" mask="url(#mask-2)" points="126.9171 54.692 134.6951 54.692 134.6951 55.586 131.3101 55.586 131.3101 64.775 130.3021 64.775 130.3021 55.586 126.9171 55.586"></polygon>
            <polygon id="Fill-16" fill="#FEFEFE" mask="url(#mask-2)" points="136.7828 64.775 136.7828 54.692 137.7908 54.692 137.7908 59.1 143.3228 59.1 143.3228 54.692 144.3308 54.692 144.3308 64.775 143.3228 64.775 143.3228 59.993 137.7908 59.993 137.7908 64.775"></polygon>
            <path d="M20.3888,38.9762 C17.6228,38.9762 15.2428,37.5612 13.6348,35.3742 L13.6348,26.2422 C15.1788,24.0542 17.6228,22.7682 20.3888,22.7682 C24.7618,22.7682 28.3638,26.2422 28.3638,30.8722 C28.3638,35.5022 24.7618,38.9762 20.3888,38.9762 M22.9608,14.0202 C18.1378,14.0202 13.6998,15.3712 10.9978,18.7162 L10.8688,18.7162 C9.5188,15.9502 5.9818,14.7932 2.8298,14.7932 C1.0938,14.7932 -0.0002,15.2442 -0.0002,15.2442 L0.3858,23.6042 C0.3858,23.6042 0.6438,23.5392 1.0298,23.5392 C2.4448,23.5392 3.8548,24.7622 3.8548,28.0422 L3.8548,60.0202 C3.8538,60.0652 3.8548,60.1062 3.8548,60.1502 C3.8548,62.8522 6.0358,65.0412 8.7378,65.0412 C11.4328,65.0412 13.6178,62.8612 13.6268,60.1662 L13.6348,60.1662 L13.6348,43.7992 L13.7638,43.7992 C15.6288,45.6002 17.8158,46.8232 20.3888,47.3362 C21.4168,47.5942 22.5758,47.7232 23.7328,47.6592 C31.7728,47.2732 38.2038,40.1982 38.2038,30.8722 C38.2038,21.2252 31.3228,14.0202 22.9608,14.0202" id="Fill-17" fill="#FEFEFE" mask="url(#mask-2)"></path>
            <path d="M63.0768,14.149 C61.7908,14.085 60.4398,14.149 59.1538,14.406 C56.5808,14.92 54.2648,16.336 52.5288,18.395 L52.3998,18.395 L52.3998,0 L42.6248,0 L42.6248,46.951 L52.3998,46.951 L52.3998,26.305 C54.0088,23.926 55.9378,22.768 58.8318,22.768 C62.8198,22.768 64.8778,25.855 64.8778,30.55 L64.8778,46.951 L74.6538,46.951 L74.6538,31.515 C74.6538,29.586 74.5248,27.785 74.2678,26.113 C73.3038,19.102 69.5728,14.535 63.0768,14.149" id="Fill-18" fill="#FEFEFE" mask="url(#mask-2)"></path>
            <path d="M99.0436,14.0201 C94.9906,14.0201 90.9386,15.8211 89.2026,19.6171 L89.0736,19.6171 L88.8806,14.7931 L79.8126,14.7931 L79.8126,46.9511 L89.5876,46.9511 L89.5876,26.3051 C91.1966,23.9261 93.1256,22.7681 96.0196,22.7681 C100.0066,22.7681 102.0656,25.8551 102.0656,30.5501 L102.0656,46.9511 L111.8426,46.9511 L111.8426,30.5501 C111.8426,20.6461 107.5326,14.0201 99.0436,14.0201" id="Fill-19" fill="#FEFEFE" mask="url(#mask-2)"></path>
            <path d="M5.6808,89.0748 L7.8398,89.0748 L6.8168,85.1948 L6.7938,85.1948 L5.6808,89.0748 Z M6.1638,84.0588 L7.4918,84.0588 L9.6508,92.0888 L8.6158,92.0888 L8.0418,89.8848 L5.4778,89.8848 L4.8828,92.0888 L3.8478,92.0888 L6.1638,84.0588 Z" id="Fill-20" fill="#FEFEFE" mask="url(#mask-2)"></path>
            <path d="M10.381,86.0611 L11.28,86.0611 L11.28,86.7691 L11.303,86.7691 C11.55,86.2181 12.18,85.9031 12.765,85.9031 C14.351,85.9031 14.351,87.1071 14.351,87.8151 L14.351,92.0881 L13.406,92.0881 L13.406,87.9271 C13.406,87.4661 13.372,86.7131 12.518,86.7131 C12.011,86.7131 11.325,87.0501 11.325,87.9271 L11.325,92.0881 L10.381,92.0881 L10.381,86.0611 Z" id="Fill-21" fill="#FEFEFE" mask="url(#mask-2)"></path>
            <path d="M19.4088,89.0748 L21.5678,89.0748 L20.5448,85.1948 L20.5218,85.1948 L19.4088,89.0748 Z M19.8918,84.0588 L21.2198,84.0588 L23.3788,92.0888 L22.3438,92.0888 L21.7698,89.8848 L19.2058,89.8848 L18.6108,92.0888 L17.5758,92.0888 L19.8918,84.0588 Z" id="Fill-22" fill="#FEFEFE" mask="url(#mask-2)"></path>
            <path d="M27.9562,92.0885 L27.0562,92.0885 L27.0562,91.3805 L27.0342,91.3805 C26.7872,91.9315 26.1572,92.2455 25.5722,92.2455 C23.9862,92.2455 23.9862,91.0425 23.9862,90.3345 L23.9862,86.0615 L24.9312,86.0615 L24.9312,90.2215 C24.9312,90.6835 24.9642,91.4365 25.8192,91.4365 C26.3252,91.4365 27.0112,91.0995 27.0112,90.2215 L27.0112,86.0615 L27.9562,86.0615 L27.9562,92.0885 Z" id="Fill-23" fill="#FEFEFE" mask="url(#mask-2)"></path>
            <path d="M31.7384,87.8268 C31.7384,87.0618 31.5354,86.6448 30.8494,86.6448 C30.5464,86.6448 29.8714,86.7238 29.8714,87.5678 C29.8714,88.2758 30.6134,88.4108 31.3564,88.6588 C32.0874,88.9058 32.8294,89.1648 32.8294,90.3568 C32.8294,91.6278 32.0084,92.2458 30.8844,92.2458 C28.8374,92.2458 28.8144,90.7278 28.8144,90.1088 L29.7594,90.1088 C29.7594,90.8408 29.9614,91.5038 30.8844,91.5038 C31.1874,91.5038 31.8844,91.3568 31.8844,90.5028 C31.8844,89.6928 31.1424,89.5238 30.4114,89.2768 C29.6804,89.0298 28.9264,88.8158 28.9264,87.5678 C28.9264,86.4428 29.8044,85.9028 30.8494,85.9028 C32.6044,85.9028 32.6714,87.1178 32.6834,87.8268 L31.7384,87.8268 Z" id="Fill-24" fill="#FEFEFE" mask="url(#mask-2)"></path>
            <path d="M34.0836,84.3062 L35.0286,84.3062 L35.0286,86.0612 L36.0746,86.0612 L36.0746,86.8032 L35.0286,86.8032 L35.0286,90.6712 C35.0286,91.1552 35.1516,91.3462 35.6466,91.3462 C35.8496,91.3462 35.9616,91.3242 36.0626,91.3122 L36.0626,92.0882 C35.9396,92.1112 35.6916,92.1562 35.2986,92.1562 C34.3196,92.1562 34.0836,91.7512 34.0836,90.9632 L34.0836,86.8032 L33.2066,86.8032 L33.2066,86.0612 L34.0836,86.0612 L34.0836,84.3062 Z" id="Fill-25" fill="#FEFEFE" mask="url(#mask-2)"></path>
            <path d="M36.7462,86.0611 L37.6902,86.0611 L37.6902,86.9601 L37.7132,86.9601 C37.9832,86.3871 38.3432,85.9031 39.0172,85.9031 C39.2092,85.9031 39.3442,85.9251 39.4342,85.9711 L39.4342,86.8931 C39.3442,86.8811 39.2312,86.8481 38.9282,86.8481 C38.4552,86.8481 37.6902,87.2751 37.6902,88.2761 L37.6902,92.0881 L36.7462,92.0881 L36.7462,86.0611 Z" id="Fill-26" fill="#FEFEFE" mask="url(#mask-2)"></path>
            <path d="M42.9039,88.8043 C42.5549,89.1753 41.7229,89.2543 41.2959,89.5133 C40.9919,89.7043 40.8349,89.9413 40.8349,90.4693 C40.8349,91.0763 41.0489,91.5033 41.6899,91.5033 C42.3079,91.5033 42.9039,90.9753 42.9039,90.3573 L42.9039,88.8043 Z M39.9909,87.8823 C39.9909,86.5103 40.5759,85.9033 42.0159,85.9033 C43.8489,85.9033 43.8489,87.0053 43.8489,87.6353 L43.8489,90.9973 C43.8489,91.2443 43.8489,91.4813 44.1409,91.4813 C44.2649,91.4813 44.3209,91.4583 44.3659,91.4253 L44.3659,92.1003 C44.2989,92.1113 44.0509,92.1563 43.8149,92.1563 C43.4549,92.1563 43.0059,92.1563 42.9609,91.3803 L42.9379,91.3803 C42.6339,91.9193 42.0499,92.2453 41.4869,92.2453 C40.3619,92.2453 39.8449,91.5713 39.8449,90.4913 C39.8449,89.6483 40.2049,89.0633 40.9809,88.8263 L42.2519,88.4453 C42.9379,88.2313 42.9379,88.0393 42.9379,87.5333 C42.9379,86.9713 42.6009,86.6453 41.9709,86.6453 C40.9359,86.6453 40.9359,87.6133 40.9359,87.8263 L40.9359,87.8823 L39.9909,87.8823 Z" id="Fill-27" fill="#FEFEFE" mask="url(#mask-2)"></path>
            <polygon id="Fill-28" fill="#FEFEFE" mask="url(#mask-2)" points="45.14 92.0877 46.085 92.0877 46.085 84.0587 45.14 84.0587"></polygon>
            <path d="M47.274,92.0877 L48.219,92.0877 L48.219,86.0607 L47.274,86.0607 L47.274,92.0877 Z M47.274,85.1377 L48.219,85.1377 L48.219,84.0587 L47.274,84.0587 L47.274,85.1377 Z" id="Fill-29" fill="#FEFEFE" mask="url(#mask-2)"></path>
            <path d="M52.1915,88.8043 C51.8425,89.1753 51.0105,89.2543 50.5835,89.5133 C50.2795,89.7043 50.1225,89.9413 50.1225,90.4693 C50.1225,91.0763 50.3365,91.5033 50.9775,91.5033 C51.5955,91.5033 52.1915,90.9753 52.1915,90.3573 L52.1915,88.8043 Z M49.2785,87.8823 C49.2785,86.5103 49.8635,85.9033 51.3035,85.9033 C53.1365,85.9033 53.1365,87.0053 53.1365,87.6353 L53.1365,90.9973 C53.1365,91.2443 53.1365,91.4813 53.4285,91.4813 C53.5525,91.4813 53.6085,91.4583 53.6535,91.4253 L53.6535,92.1003 C53.5865,92.1113 53.3385,92.1563 53.1025,92.1563 C52.7425,92.1563 52.2935,92.1563 52.2485,91.3803 L52.2255,91.3803 C51.9215,91.9193 51.3375,92.2453 50.7745,92.2453 C49.6495,92.2453 49.1325,91.5713 49.1325,90.4913 C49.1325,89.6483 49.4925,89.0633 50.2685,88.8263 L51.5395,88.4453 C52.2255,88.2313 52.2255,88.0393 52.2255,87.5333 C52.2255,86.9713 51.8885,86.6453 51.2585,86.6453 C50.2235,86.6453 50.2235,87.6133 50.2235,87.8263 L50.2235,87.8823 L49.2785,87.8823 Z" id="Fill-30" fill="#FEFEFE" mask="url(#mask-2)"></path>
            <path d="M54.3976,86.0611 L55.2966,86.0611 L55.2966,86.7691 L55.3196,86.7691 C55.5666,86.2181 56.1966,85.9031 56.7816,85.9031 C58.3676,85.9031 58.3676,87.1071 58.3676,87.8151 L58.3676,92.0881 L57.4226,92.0881 L57.4226,87.9271 C57.4226,87.4661 57.3886,86.7131 56.5346,86.7131 C56.0276,86.7131 55.3416,87.0501 55.3416,87.9271 L55.3416,92.0881 L54.3976,92.0881 L54.3976,86.0611 Z" id="Fill-31" fill="#FEFEFE" mask="url(#mask-2)"></path>
            <path d="M66.1466,86.2857 C66.1016,85.4417 65.7866,84.7117 64.8086,84.7117 C63.4366,84.7117 63.2566,86.2187 63.2566,88.0737 C63.2566,89.9297 63.4366,91.4357 64.8086,91.4357 C66.1806,91.4357 66.2816,89.7947 66.2816,88.7257 L64.6956,88.7257 L64.6956,87.9167 L67.1816,87.9167 L67.1816,92.0887 L66.4386,92.0887 L66.4386,90.9977 L66.4166,90.9977 C66.2036,91.6827 65.5626,92.2457 64.6846,92.2457 C62.5936,92.2457 62.2226,90.2327 62.2226,88.0737 C62.2226,86.0497 62.5936,83.9017 64.8086,83.9017 C67.1136,83.9017 67.1696,85.8697 67.1816,86.2857 L66.1466,86.2857 Z" id="Fill-32" fill="#FEFEFE" mask="url(#mask-2)"></path>
            <path d="M71.506,89.0748 C71.506,87.7698 71.315,86.6448 70.303,86.6448 C69.347,86.6448 69.145,87.7698 69.145,89.0748 C69.145,90.3798 69.336,91.5038 70.303,91.5038 C71.304,91.5038 71.506,90.3798 71.506,89.0748 M70.325,85.9028 C72.068,85.9028 72.496,87.3768 72.496,89.0748 C72.496,90.7728 72.057,92.2458 70.325,92.2458 C68.582,92.2458 68.155,90.7728 68.155,89.0748 C68.155,87.3768 68.593,85.9028 70.325,85.9028" id="Fill-33" fill="#FEFEFE" mask="url(#mask-2)"></path>
            <polygon id="Fill-34" fill="#FEFEFE" mask="url(#mask-2)" points="72.8258 86.0611 73.8608 86.0611 74.9848 90.8961 75.0078 90.8961 76.1328 86.0611 77.1668 86.0611 75.5358 92.0881 74.4568 92.0881"></polygon>
            <path d="M80.7081,88.4449 L80.7081,88.1189 C80.7081,87.4439 80.4941,86.6449 79.6621,86.6449 C78.6721,86.6449 78.5601,87.8599 78.5601,88.2199 L78.5601,88.4449 L80.7081,88.4449 Z M78.5261,89.1869 C78.5261,90.1089 78.5261,91.5039 79.6851,91.5039 C80.5841,91.5039 80.7081,90.5589 80.7081,90.1089 L81.6531,90.1089 C81.6531,90.7509 81.2701,92.2459 79.6281,92.2459 C78.1551,92.2459 77.5371,91.2219 77.5371,89.1529 C77.5371,87.6459 77.8291,85.9029 79.6851,85.9029 C81.5291,85.9029 81.6981,87.5109 81.6981,88.8039 L81.6981,89.1869 L78.5261,89.1869 Z" id="Fill-35" fill="#FEFEFE" mask="url(#mask-2)"></path>
            <path d="M82.6544,86.0611 L83.5984,86.0611 L83.5984,86.9601 L83.6214,86.9601 C83.8914,86.3871 84.2514,85.9031 84.9254,85.9031 C85.1174,85.9031 85.2524,85.9251 85.3424,85.9711 L85.3424,86.8931 C85.2524,86.8811 85.1394,86.8481 84.8364,86.8481 C84.3634,86.8481 83.5984,87.2751 83.5984,88.2761 L83.5984,92.0881 L82.6544,92.0881 L82.6544,86.0611 Z" id="Fill-36" fill="#FEFEFE" mask="url(#mask-2)"></path>
            <path d="M86.0192,86.0611 L86.9182,86.0611 L86.9182,86.7691 L86.9412,86.7691 C87.1882,86.2181 87.8182,85.9031 88.4032,85.9031 C89.9892,85.9031 89.9892,87.1071 89.9892,87.8151 L89.9892,92.0881 L89.0442,92.0881 L89.0442,87.9271 C89.0442,87.4661 89.0102,86.7131 88.1562,86.7131 C87.6492,86.7131 86.9632,87.0501 86.9632,87.9271 L86.9632,92.0881 L86.0192,92.0881 L86.0192,86.0611 Z" id="Fill-37" fill="#FEFEFE" mask="url(#mask-2)"></path>
            <path d="M91.1715,86.0611 L92.0705,86.0611 L92.0705,86.7691 L92.0935,86.7691 C92.3405,86.2181 92.9705,85.9031 93.5555,85.9031 C94.2535,85.9031 94.6695,86.1731 94.8595,86.8591 C95.1295,86.3311 95.6695,85.9031 96.2885,85.9031 C97.8745,85.9031 97.8745,87.1071 97.8745,87.8151 L97.8745,92.0881 L96.9295,92.0881 L96.9295,87.9271 C96.9295,87.4661 96.8955,86.7131 96.1195,86.7131 C95.6815,86.7131 94.9955,86.9831 94.9955,87.9271 L94.9955,92.0881 L94.0505,92.0881 L94.0505,87.9271 C94.0505,87.4661 94.0165,86.7131 93.2405,86.7131 C92.8025,86.7131 92.1165,86.9831 92.1165,87.9271 L92.1165,92.0881 L91.1715,92.0881 L91.1715,86.0611 Z" id="Fill-38" fill="#FEFEFE" mask="url(#mask-2)"></path>
            <path d="M102.0573,88.4449 L102.0573,88.1189 C102.0573,87.4439 101.8433,86.6449 101.0113,86.6449 C100.0213,86.6449 99.9093,87.8599 99.9093,88.2199 L99.9093,88.4449 L102.0573,88.4449 Z M99.8753,89.1869 C99.8753,90.1089 99.8753,91.5039 101.0343,91.5039 C101.9333,91.5039 102.0573,90.5589 102.0573,90.1089 L103.0023,90.1089 C103.0023,90.7509 102.6193,92.2459 100.9773,92.2459 C99.5043,92.2459 98.8863,91.2219 98.8863,89.1529 C98.8863,87.6459 99.1783,85.9029 101.0343,85.9029 C102.8783,85.9029 103.0473,87.5109 103.0473,88.8039 L103.0473,89.1869 L99.8753,89.1869 Z" id="Fill-39" fill="#FEFEFE" mask="url(#mask-2)"></path>
            <path d="M104.004,86.0611 L104.903,86.0611 L104.903,86.7691 L104.926,86.7691 C105.173,86.2181 105.803,85.9031 106.388,85.9031 C107.974,85.9031 107.974,87.1071 107.974,87.8151 L107.974,92.0881 L107.029,92.0881 L107.029,87.9271 C107.029,87.4661 106.995,86.7131 106.141,86.7131 C105.634,86.7131 104.948,87.0501 104.948,87.9271 L104.948,92.0881 L104.004,92.0881 L104.004,86.0611 Z" id="Fill-40" fill="#FEFEFE" mask="url(#mask-2)"></path>
            <path d="M109.4899,84.3062 L110.4349,84.3062 L110.4349,86.0612 L111.4809,86.0612 L111.4809,86.8032 L110.4349,86.8032 L110.4349,90.6712 C110.4349,91.1552 110.5579,91.3462 111.0529,91.3462 C111.2559,91.3462 111.3679,91.3242 111.4689,91.3122 L111.4689,92.0882 C111.3459,92.1112 111.0979,92.1562 110.7049,92.1562 C109.7259,92.1562 109.4899,91.7512 109.4899,90.9632 L109.4899,86.8032 L108.6129,86.8032 L108.6129,86.0612 L109.4899,86.0612 L109.4899,84.3062 Z" id="Fill-41" fill="#FEFEFE" mask="url(#mask-2)"></path>
            <polygon id="Fill-42" fill="#FEFEFE" mask="url(#mask-2)" points="114.853 92.0877 115.843 92.0877 115.843 84.0587 114.853 84.0587"></polygon>
            <path d="M117.1188,86.0611 L118.0178,86.0611 L118.0178,86.7691 L118.0408,86.7691 C118.2878,86.2181 118.9178,85.9031 119.5028,85.9031 C121.0888,85.9031 121.0888,87.1071 121.0888,87.8151 L121.0888,92.0881 L120.1438,92.0881 L120.1438,87.9271 C120.1438,87.4661 120.1098,86.7131 119.2558,86.7131 C118.7488,86.7131 118.0628,87.0501 118.0628,87.9271 L118.0628,92.0881 L117.1188,92.0881 L117.1188,86.0611 Z" id="Fill-43" fill="#FEFEFE" mask="url(#mask-2)"></path>
            <path d="M122.251,92.0877 L123.196,92.0877 L123.196,86.0607 L122.251,86.0607 L122.251,92.0877 Z M122.251,85.1377 L123.196,85.1377 L123.196,84.0587 L122.251,84.0587 L122.251,85.1377 Z" id="Fill-44" fill="#FEFEFE" mask="url(#mask-2)"></path>
            <path d="M124.7692,84.3062 L125.7142,84.3062 L125.7142,86.0612 L126.7602,86.0612 L126.7602,86.8032 L125.7142,86.8032 L125.7142,90.6712 C125.7142,91.1552 125.8372,91.3462 126.3322,91.3462 C126.5352,91.3462 126.6472,91.3242 126.7482,91.3122 L126.7482,92.0882 C126.6252,92.1112 126.3772,92.1562 125.9842,92.1562 C125.0052,92.1562 124.7692,91.7512 124.7692,90.9632 L124.7692,86.8032 L123.8922,86.8032 L123.8922,86.0612 L124.7692,86.0612 L124.7692,84.3062 Z" id="Fill-45" fill="#FEFEFE" mask="url(#mask-2)"></path>
            <path d="M127.456,92.0877 L128.401,92.0877 L128.401,86.0607 L127.456,86.0607 L127.456,92.0877 Z M127.456,85.1377 L128.401,85.1377 L128.401,84.0587 L127.456,84.0587 L127.456,85.1377 Z" id="Fill-46" fill="#FEFEFE" mask="url(#mask-2)"></path>
            <path d="M132.3741,88.8043 C132.0251,89.1753 131.1931,89.2543 130.7661,89.5133 C130.4621,89.7043 130.3051,89.9413 130.3051,90.4693 C130.3051,91.0763 130.5191,91.5033 131.1601,91.5033 C131.7781,91.5033 132.3741,90.9753 132.3741,90.3573 L132.3741,88.8043 Z M129.4611,87.8823 C129.4611,86.5103 130.0461,85.9033 131.4861,85.9033 C133.3191,85.9033 133.3191,87.0053 133.3191,87.6353 L133.3191,90.9973 C133.3191,91.2443 133.3191,91.4813 133.6111,91.4813 C133.7351,91.4813 133.7911,91.4583 133.8361,91.4253 L133.8361,92.1003 C133.7691,92.1113 133.5211,92.1563 133.2851,92.1563 C132.9251,92.1563 132.4761,92.1563 132.4311,91.3803 L132.4081,91.3803 C132.1041,91.9193 131.5201,92.2453 130.9571,92.2453 C129.8321,92.2453 129.3151,91.5713 129.3151,90.4913 C129.3151,89.6483 129.6751,89.0633 130.4511,88.8263 L131.7221,88.4453 C132.4081,88.2313 132.4081,88.0393 132.4081,87.5333 C132.4081,86.9713 132.0711,86.6453 131.4411,86.6453 C130.4061,86.6453 130.4061,87.6133 130.4061,87.8263 L130.4061,87.8823 L129.4611,87.8823 Z" id="Fill-47" fill="#FEFEFE" mask="url(#mask-2)"></path>
            <path d="M134.8668,84.3062 L135.8118,84.3062 L135.8118,86.0612 L136.8578,86.0612 L136.8578,86.8032 L135.8118,86.8032 L135.8118,90.6712 C135.8118,91.1552 135.9348,91.3462 136.4298,91.3462 C136.6328,91.3462 136.7448,91.3242 136.8458,91.3122 L136.8458,92.0882 C136.7228,92.1112 136.4748,92.1562 136.0818,92.1562 C135.1028,92.1562 134.8668,91.7512 134.8668,90.9632 L134.8668,86.8032 L133.9898,86.8032 L133.9898,86.0612 L134.8668,86.0612 L134.8668,84.3062 Z" id="Fill-48" fill="#FEFEFE" mask="url(#mask-2)"></path>
            <path d="M137.554,92.0877 L138.499,92.0877 L138.499,86.0607 L137.554,86.0607 L137.554,92.0877 Z M137.554,85.1377 L138.499,85.1377 L138.499,84.0587 L137.554,84.0587 L137.554,85.1377 Z" id="Fill-49" fill="#FEFEFE" mask="url(#mask-2)"></path>
            <polygon id="Fill-50" fill="#FEFEFE" mask="url(#mask-2)" points="139.2443 86.0611 140.2793 86.0611 141.4033 90.8961 141.4263 90.8961 142.5503 86.0611 143.5853 86.0611 141.9543 92.0881 140.8753 92.0881"></polygon>
            <path d="M147.1266,88.4449 L147.1266,88.1189 C147.1266,87.4439 146.9126,86.6449 146.0806,86.6449 C145.0906,86.6449 144.9786,87.8599 144.9786,88.2199 L144.9786,88.4449 L147.1266,88.4449 Z M144.9446,89.1869 C144.9446,90.1089 144.9446,91.5039 146.1036,91.5039 C147.0026,91.5039 147.1266,90.5589 147.1266,90.1089 L148.0716,90.1089 C148.0716,90.7509 147.6886,92.2459 146.0466,92.2459 C144.5736,92.2459 143.9556,91.2219 143.9556,89.1529 C143.9556,87.6459 144.2476,85.9029 146.1036,85.9029 C147.9476,85.9029 148.1166,87.5109 148.1166,88.8039 L148.1166,89.1869 L144.9446,89.1869 Z" id="Fill-51" fill="#FEFEFE" mask="url(#mask-2)"></path>
            <g id="Group-54" mask="url(#mask-2)">
                <g transform="translate(3.000000, 76.245700)">
                    <path d="M0.778,0.6943 L144.845,0.6943" id="Fill-52" stroke="none" fill="#FEFEFE" fill-rule="evenodd"></path>
                    <path d="M0.778,0.6943 L144.845,0.6943" id="Stroke-53" stroke="#FEFEFE" stroke-width="0.5" fill="none"></path>
                </g>
            </g>
        </g>
    </g>
</svg>