<?xml version="1.0" encoding="UTF-8"?>
<svg width="112px" height="70px" viewBox="0 0 112 70" version="1.1" xmlns="http://www.w3.org/2000/svg" xmlns:xlink="http://www.w3.org/1999/xlink">
    <!-- Generator: Sketch 52.1 (67048) - http://www.bohemiancoding.com/sketch -->
    <title>Group 54</title>
    <desc>Created with Sketch.</desc>
    <defs>
        <polygon id="path-1" points="0 69.627963 111.885838 69.627963 111.885838 0 0 0"></polygon>
    </defs>
    <g id="Year-in-review" stroke="none" stroke-width="1" fill="none" fill-rule="evenodd">
        <g id="Homepage-B" transform="translate(-30.000000, -30.000000)">
            <g id="Group-54" transform="translate(30.000000, 30.000000)">
                <path d="M15.4790919,48.2188086 L16.8170378,48.2188086 C18.0356324,48.2188086 19.0916324,47.8277593 19.0916324,46.8922654 C19.0916324,45.7938704 18.2864432,45.2070802 17.0129297,45.2070802 L15.4790919,45.2070802 L15.4790919,48.2188086 Z M15.4790919,44.5325741 L16.9913081,44.5325741 C17.6771459,44.5325741 18.5580108,44.1311543 18.5580108,43.0872037 C18.5580108,42.2822037 17.7095784,41.9564012 16.6756324,41.9564012 L15.4790919,41.9564012 L15.4790919,44.5325741 Z M18.0581189,44.7931296 C19.1997405,45.022142 19.8752,45.8267099 19.8752,46.8922654 C19.8752,48.3272654 18.4499027,48.8928827 16.8170378,48.8928827 L14.7171459,48.8928827 L14.7171459,41.2818951 L16.6756324,41.2818951 C18.1333622,41.2818951 19.3411459,41.7822654 19.3411459,43.0872037 C19.3411459,43.924179 18.8304432,44.6090556 18.0581189,44.7719568 L18.0581189,44.7931296 Z" id="Fill-1" fill="#FEFEFE"></path>
                <path d="M22.5627243,44.663284 L23.835373,44.663284 C25.0760216,44.663284 25.7506162,44.1849506 25.7506162,43.2935309 C25.7506162,42.3913086 25.0431568,41.9561852 23.835373,41.9561852 L22.5627243,41.9561852 L22.5627243,44.663284 Z M24.0208865,45.337358 L22.5627243,45.337358 L22.5627243,48.8926667 L21.8007784,48.8926667 L21.8007784,41.2821111 L23.835373,41.2821111 C25.5331027,41.2821111 26.5337514,41.9129753 26.5337514,43.2935309 C26.5337514,44.3586543 25.9356973,45.0219259 24.8256432,45.2505062 L26.9800216,48.8926667 L26.1311568,48.8926667 L24.0208865,45.337358 Z" id="Fill-3" fill="#FEFEFE"></path>
                <mask id="mask-2" fill="white">
                    <use xlink:href="#path-1"></use>
                </mask>
                <g id="Clip-6"></g>
                <polygon id="Fill-5" fill="#FEFEFE" mask="url(#mask-2)" points="28.6577297 48.8924074 29.4192432 48.8924074 29.4192432 41.2818519 28.6577297 41.2818519"></polygon>
                <path d="M35.3241081,42.3690556 C35.3241081,42.3690556 34.8233514,41.8475123 33.7898378,41.8475123 C32.8544865,41.8475123 32.2019459,42.401463 32.2019459,43.1196111 C32.2019459,44.0542407 33.0067027,44.3152284 33.8335135,44.7179444 C34.9003243,45.2394877 35.9878919,45.6093642 35.9878919,47.0772037 C35.9878919,48.1319568 35.1178378,49.0229444 33.6812973,49.0229444 C32.1254054,49.0229444 31.2652973,48.0451049 31.2652973,48.0451049 L31.7876757,47.5875123 C31.7876757,47.5875123 32.4406486,48.3272654 33.6812973,48.3272654 C34.6274595,48.3272654 35.2047568,47.7728827 35.2047568,47.0772037 C35.2047568,46.0768951 34.2905946,45.7402901 33.484973,45.3488086 C32.4735135,44.8480062 31.4179459,44.4457222 31.4179459,43.1196111 C31.4179459,42.0104136 32.3861622,41.1518333 33.7898378,41.1518333 C35.1178378,41.1518333 35.8244324,41.8911543 35.8244324,41.8911543 L35.3241081,42.3690556 Z" id="Fill-7" fill="#FEFEFE" mask="url(#mask-2)"></path>
                <path d="M38.5962811,48.2188086 L39.9350919,48.2188086 C41.1532541,48.2188086 42.2088216,47.8277593 42.2088216,46.8922654 C42.2088216,45.7938704 41.4036324,45.2070802 40.1309838,45.2070802 L38.5962811,45.2070802 L38.5962811,48.2188086 Z M38.5962811,44.5325741 L40.1089297,44.5325741 C40.7943351,44.5325741 41.6756324,44.1311543 41.6756324,43.0872037 C41.6756324,42.2822037 40.8267676,41.9564012 39.7936865,41.9564012 L38.5962811,41.9564012 L38.5962811,44.5325741 Z M41.1753081,44.7931296 C42.3173622,45.022142 42.9923892,45.8267099 42.9923892,46.8922654 C42.9923892,48.3272654 41.5670919,48.8928827 39.9350919,48.8928827 L37.8347676,48.8928827 L37.8347676,41.2818951 L39.7936865,41.2818951 C41.2514162,41.2818951 42.4592,41.7822654 42.4592,43.0872037 C42.4592,43.924179 41.9480649,44.6090556 41.1753081,44.7719568 L41.1753081,44.7931296 Z" id="Fill-8" fill="#FEFEFE" mask="url(#mask-2)"></path>
                <path d="M47.5836108,42.195179 L45.8543135,46.1964136 L49.3033946,46.1964136 L47.6060973,42.195179 L47.5836108,42.195179 Z M44.6902054,48.8927099 L43.8953946,48.8927099 L47.1922595,41.2821543 L47.9974486,41.2821543 L51.2618811,48.8927099 L50.4566919,48.8927099 L49.5970162,46.8704877 L45.559827,46.8704877 L44.6902054,48.8927099 Z" id="Fill-9" fill="#FEFEFE" mask="url(#mask-2)"></path>
                <polygon id="Fill-10" fill="#FEFEFE" mask="url(#mask-2)" points="58.3672216 48.0230247 58.3672216 41.2818519 59.1291676 41.2818519 59.1291676 48.8928395 58.0952216 48.8928395 53.5473297 42.1624691 53.5252757 42.1624691 53.5252757 48.8928395 52.7633297 48.8928395 52.7633297 41.2818519 53.7972757 41.2818519 58.3451676 48.0230247"></polygon>
                <polygon id="Fill-11" fill="#FEFEFE" mask="url(#mask-2)" points="66.4339027 48.2188086 66.4339027 48.8928827 61.5815784 48.8928827 61.5815784 41.2818951 66.3037405 41.2818951 66.3037405 41.9564012 62.3435243 41.9564012 62.3435243 44.5982531 66.0429838 44.5982531 66.0429838 45.2723272 62.3435243 45.2723272 62.3435243 48.2188086"></polygon>
                <polygon id="Fill-12" fill="#FEFEFE" mask="url(#mask-2)" points="77.4322162 48.0230247 77.4322162 41.2818519 78.1932973 41.2818519 78.1932973 48.8928395 77.1602162 48.8928395 72.6114595 42.1624691 72.5902703 42.1624691 72.5902703 48.8928395 71.8283243 48.8928395 71.8283243 41.2818519 72.8622703 41.2818519 77.4092973 48.0230247"></polygon>
                <path d="M84.0580757,41.8474691 C82.2725622,41.8474691 80.9346162,43.2176543 80.9346162,45.0877778 C80.9346162,46.9574691 82.2725622,48.3272222 84.0580757,48.3272222 C85.8418595,48.3272222 87.1806703,46.9574691 87.1806703,45.0877778 C87.1806703,43.2176543 85.8418595,41.8474691 84.0580757,41.8474691 M84.0580757,49.0229012 C81.8275892,49.0229012 80.1510486,47.3597531 80.1510486,45.0877778 C80.1510486,42.8149383 81.8275892,41.1517901 84.0580757,41.1517901 C86.2876973,41.1517901 87.9642378,42.8149383 87.9642378,45.0877778 C87.9642378,47.3597531 86.2876973,49.0229012 84.0580757,49.0229012" id="Fill-13" fill="#FEFEFE" mask="url(#mask-2)"></path>
                <path d="M90.6889946,44.663284 L91.9625081,44.663284 C93.2022919,44.663284 93.8773189,44.1849506 93.8773189,43.2935309 C93.8773189,42.3913086 93.1702919,41.9561852 91.9625081,41.9561852 L90.6889946,41.9561852 L90.6889946,44.663284 Z M92.1475892,45.337358 L90.6889946,45.337358 L90.6889946,48.8926667 L89.9270486,48.8926667 L89.9270486,41.2821111 L91.9625081,41.2821111 C93.659373,41.2821111 94.6613189,41.9129753 94.6613189,43.2935309 C94.6613189,44.3586543 94.0624,45.0219259 92.9514811,45.2505062 L95.1062919,48.8926667 L94.2582919,48.8926667 L92.1475892,45.337358 Z" id="Fill-14" fill="#FEFEFE" mask="url(#mask-2)"></path>
                <polygon id="Fill-15" fill="#FEFEFE" mask="url(#mask-2)" points="95.8731243 41.2820247 101.747286 41.2820247 101.747286 41.9565309 99.1907459 41.9565309 99.1907459 48.8925802 98.4296649 48.8925802 98.4296649 41.9565309 95.8731243 41.9565309"></polygon>
                <polygon id="Fill-16" fill="#FEFEFE" mask="url(#mask-2)" points="103.324973 48.8927099 103.324973 41.2821543 104.086054 41.2821543 104.086054 44.6093148 108.264216 44.6093148 108.264216 41.2821543 109.026162 41.2821543 109.026162 48.8927099 108.264216 48.8927099 108.264216 45.2829568 104.086054 45.2829568 104.086054 48.8927099"></polygon>
                <path d="M15.4018162,29.4195741 C13.3127351,29.4195741 11.5151135,28.3509938 10.2999784,26.7003765 L10.2999784,19.8071049 C11.4662486,18.1560556 13.3127351,17.1851296 15.4018162,17.1851296 C18.7051676,17.1851296 21.4256,19.8071049 21.4256,23.3019198 C21.4256,26.7971667 18.7051676,29.4195741 15.4018162,29.4195741 M17.3447351,10.5830926 C13.7014919,10.5830926 10.3484108,11.6024136 8.30819459,14.1267346 L8.21132973,14.1267346 C7.19078919,12.0392654 4.51878919,11.1659938 2.13781622,11.1659938 C0.826681081,11.1659938 -0.00012972973,11.5056235 -0.00012972973,11.5056235 L0.29132973,17.8164259 C0.29132973,17.8164259 0.486356757,17.7675988 0.778248649,17.7675988 C1.84678919,17.7675988 2.9123027,18.6901296 2.9123027,21.1664877 L2.9123027,45.3039568 C2.91187027,45.3372284 2.9123027,45.3683395 2.9123027,45.4016111 C2.9123027,47.4411173 4.55987027,49.0938951 6.60008649,49.0938951 C8.63684324,49.0938951 10.2874378,47.4475988 10.2939243,45.4145741 L10.2999784,45.4145741 L10.2999784,33.0600062 L10.3972757,33.0600062 C11.806573,34.4189568 13.4580324,35.3423519 15.4018162,35.7299444 C16.1780324,35.9243889 17.0532757,36.0216111 17.9276541,35.972784 C24.0007351,35.6815494 28.8599784,30.3416728 28.8599784,23.3019198 C28.8599784,16.0206235 23.6612757,10.5830926 17.3447351,10.5830926" id="Fill-17" fill="#FEFEFE" mask="url(#mask-2)"></path>
                <path d="M47.6482595,10.6798395 C46.6761514,10.6310123 45.6560432,10.6798395 44.6843676,10.8738519 C42.7410162,11.2623086 40.9913946,12.3304568 39.6802595,13.884284 L39.5829622,13.884284 L39.5829622,8.64197531e-05 L32.1983135,8.64197531e-05 L32.1983135,35.4386667 L39.5829622,35.4386667 L39.5829622,19.8554568 C40.7976649,18.0596543 42.2553946,17.1850864 44.4413405,17.1850864 C47.4540973,17.1850864 49.0082595,19.5153951 49.0082595,23.059037 L49.0082595,35.4386667 L56.3933405,35.4386667 L56.3933405,23.7875556 C56.3933405,22.3309506 56.2964757,20.9715679 56.1018811,19.7094074 C55.3732324,14.4179259 52.5555027,10.9710741 47.6482595,10.6798395" id="Fill-18" fill="#FEFEFE" mask="url(#mask-2)"></path>
                <path d="M74.8165189,10.5830062 C71.7548973,10.5830062 68.6941405,11.9419568 67.382573,14.8063395 L67.2861405,14.8063395 L67.1408432,11.1659074 L60.2902486,11.1659074 L60.2902486,35.4386235 L67.6744649,35.4386235 L67.6744649,19.8554136 C68.8891676,18.0596111 70.3460324,17.1850432 72.5328432,17.1850432 C75.5456,17.1850432 77.1001946,19.5153519 77.1001946,23.0594259 L77.1001946,35.4386235 L84.4844108,35.4386235 L84.4844108,23.0594259 C84.4844108,15.5832531 81.2294919,10.5830062 74.8165189,10.5830062" id="Fill-19" fill="#FEFEFE" mask="url(#mask-2)"></path>
                <path d="M4.29141622,67.2349568 L5.92255135,67.2349568 L5.14936216,64.3061914 L5.1324973,64.3061914 L4.29141622,67.2349568 Z M4.65638919,63.4480432 L5.65963243,63.4480432 L7.29076757,69.5095247 L6.5084973,69.5095247 L6.0752,67.8450802 L4.13833514,67.8450802 L3.68860541,69.5095247 L2.90676757,69.5095247 L4.65638919,63.4480432 Z" id="Fill-20" fill="#FEFEFE" mask="url(#mask-2)"></path>
                <path d="M7.84185946,64.9592654 L8.52121081,64.9592654 L8.52121081,65.4933395 L8.53850811,65.4933395 C8.72531892,65.0780926 9.20142703,64.8404383 9.64294054,64.8404383 C10.8412108,64.8404383 10.8412108,65.7482778 10.8412108,66.2836481 L10.8412108,69.5092654 L10.1272649,69.5092654 L10.1272649,66.3687716 C10.1272649,66.0205 10.1013189,65.451858 9.4556973,65.451858 C9.07385946,65.451858 8.55494054,65.7063642 8.55494054,66.3687716 L8.55494054,69.5092654 L7.84185946,69.5092654 L7.84185946,64.9592654 Z" id="Fill-21" fill="#FEFEFE" mask="url(#mask-2)"></path>
                <path d="M14.6613189,67.2349568 L16.2924541,67.2349568 L15.5192649,64.3061914 L15.5024,64.3061914 L14.6613189,67.2349568 Z M15.0267243,63.4480432 L16.0295351,63.4480432 L17.6606703,69.5095247 L16.8784,69.5095247 L16.4451027,67.8450802 L14.5086703,67.8450802 L14.0585081,69.5095247 L13.2766703,69.5095247 L15.0267243,63.4480432 Z" id="Fill-22" fill="#FEFEFE" mask="url(#mask-2)"></path>
                <path d="M21.1182703,69.5093951 L20.4380541,69.5093951 L20.4380541,68.9748889 L20.4216216,68.9748889 C20.2348108,69.3905679 19.7591351,69.6277901 19.3171892,69.6277901 C18.1193514,69.6277901 18.1193514,68.7199506 18.1193514,68.1858765 L18.1193514,64.9593951 L18.8328649,64.9593951 L18.8328649,68.0998889 C18.8328649,68.4481605 18.8579459,69.0163704 19.5044324,69.0163704 C19.8862703,69.0163704 20.4043243,68.7627284 20.4043243,68.0998889 L20.4043243,64.9593951 L21.1182703,64.9593951 L21.1182703,69.5093951 Z" id="Fill-23" fill="#FEFEFE" mask="url(#mask-2)"></path>
                <path d="M23.9750919,66.2927222 C23.9750919,65.7154383 23.8220108,65.4008704 23.3039568,65.4008704 C23.0747676,65.4008704 22.5649297,65.4605 22.5649297,66.0965494 C22.5649297,66.6306235 23.1257946,66.7330309 23.6866595,66.9201296 C24.2380108,67.1063642 24.7993081,67.302537 24.7993081,68.2017346 C24.7993081,69.1614259 24.1792,69.6280926 23.3294703,69.6280926 C21.7835243,69.6280926 21.7666595,68.4821667 21.7666595,68.0155 L22.480173,68.0155 C22.480173,68.5672901 22.6328216,69.0680926 23.3294703,69.0680926 C23.5590919,69.0680926 24.0853622,68.9566111 24.0853622,68.3123519 C24.0853622,67.7009321 23.5249297,67.573463 22.9727135,67.3867963 C22.4200649,67.2005617 21.8509838,67.0389568 21.8509838,66.0965494 C21.8509838,65.2474753 22.5139027,64.8404383 23.3039568,64.8404383 C24.6289297,64.8404383 24.6803892,65.7573519 24.6890378,66.2927222 L23.9750919,66.2927222 Z" id="Fill-24" fill="#FEFEFE" mask="url(#mask-2)"></path>
                <path d="M25.7466378,63.6347099 L26.4601514,63.6347099 L26.4601514,64.9590926 L27.2506378,64.9590926 L27.2506378,65.5190926 L26.4601514,65.5190926 L26.4601514,68.4396481 C26.4601514,68.8047716 26.5535568,68.9495247 26.9276108,68.9495247 C27.0802595,68.9495247 27.1654486,68.9322407 27.2419892,68.9235988 L27.2419892,69.5095247 C27.1490162,69.5263765 26.9622054,69.5596481 26.6646919,69.5596481 C25.9252324,69.5596481 25.7466378,69.2545864 25.7466378,68.6600185 L25.7466378,65.5190926 L25.0845838,65.5190926 L25.0845838,64.9590926 L25.7466378,64.9590926 L25.7466378,63.6347099 Z" id="Fill-25" fill="#FEFEFE" mask="url(#mask-2)"></path>
                <path d="M27.7580541,64.9592654 L28.4711351,64.9592654 L28.4711351,65.6380926 L28.4884324,65.6380926 C28.6921081,65.2055617 28.9645405,64.8404383 29.4739459,64.8404383 C29.6183784,64.8404383 29.7204324,64.8577222 29.7883243,64.891858 L29.7883243,65.5879691 C29.7204324,65.578463 29.6356757,65.5538333 29.4060541,65.5538333 C29.0488649,65.5538333 28.4711351,65.8757469 28.4711351,66.6306235 L28.4711351,69.5092654 L27.7580541,69.5092654 L27.7580541,64.9592654 Z" id="Fill-26" fill="#FEFEFE" mask="url(#mask-2)"></path>
                <path d="M32.4096432,67.0303148 C32.1462919,67.3094506 31.5175351,67.3695123 31.1949405,67.5656852 C30.9657514,67.7100062 30.8468324,67.8880309 30.8468324,68.2872901 C30.8468324,68.7457469 31.0081297,69.0680926 31.4924541,69.0680926 C31.9594811,69.0680926 32.4096432,68.6688333 32.4096432,68.2017346 L32.4096432,67.0303148 Z M30.209427,66.3346358 C30.209427,65.2988951 30.651373,64.8404383 31.7389405,64.8404383 C33.1231568,64.8404383 33.1231568,65.6722284 33.1231568,66.1479691 L33.1231568,68.6856852 C33.1231568,68.8723519 33.1231568,69.0512407 33.3441297,69.0512407 C33.4375351,69.0512407 33.4799135,69.0339568 33.5140757,69.0080309 L33.5140757,69.5179074 C33.4630486,69.5261173 33.2762378,69.559821 33.0976432,69.559821 C32.8260757,69.559821 32.4861838,69.559821 32.4520216,68.9747593 L32.4355892,68.9747593 C32.2059676,69.3817963 31.7640216,69.6280926 31.3389405,69.6280926 C30.4900757,69.6280926 30.0991568,69.118216 30.0991568,68.3032778 C30.0991568,67.6676605 30.3707243,67.2251914 30.9571027,67.0475988 L31.9171027,66.7593889 C32.4355892,66.597784 32.4355892,66.4530309 32.4355892,66.0706235 C32.4355892,65.6467346 32.1804541,65.4008704 31.7047784,65.4008704 C30.923373,65.4008704 30.923373,66.1306852 30.923373,66.2927222 L30.923373,66.3346358 L30.209427,66.3346358 Z" id="Fill-27" fill="#FEFEFE" mask="url(#mask-2)"></path>
                <polygon id="Fill-28" fill="#FEFEFE" mask="url(#mask-2)" points="34.0985946 69.5091358 34.8121081 69.5091358 34.8121081 63.4480864 34.0985946 63.4480864"></polygon>
                <path d="M35.7102703,69.5091358 L36.4242162,69.5091358 L36.4242162,64.9591358 L35.7102703,64.9591358 L35.7102703,69.5091358 Z M35.7102703,64.2634568 L36.4242162,64.2634568 L36.4242162,63.4480864 L35.7102703,63.4480864 L35.7102703,64.2634568 Z" id="Fill-29" fill="#FEFEFE" mask="url(#mask-2)"></path>
                <path d="M39.4252541,67.0303148 C39.1623351,67.3094506 38.5335784,67.3695123 38.2105514,67.5656852 C37.9813622,67.7100062 37.8624432,67.8880309 37.8624432,68.2872901 C37.8624432,68.7457469 38.0237405,69.0680926 38.5080649,69.0680926 C38.9750919,69.0680926 39.4252541,68.6688333 39.4252541,68.2017346 L39.4252541,67.0303148 Z M37.2250378,66.3346358 C37.2250378,65.2988951 37.6674162,64.8404383 38.7541189,64.8404383 C40.1387676,64.8404383 40.1387676,65.6722284 40.1387676,66.1479691 L40.1387676,68.6856852 C40.1387676,68.8723519 40.1387676,69.0512407 40.3597405,69.0512407 C40.4531459,69.0512407 40.4959568,69.0339568 40.5296865,69.0080309 L40.5296865,69.5179074 C40.4790919,69.5261173 40.2922811,69.559821 40.1132541,69.559821 C39.8416865,69.559821 39.502227,69.559821 39.4684973,68.9747593 L39.4507676,68.9747593 C39.2215784,69.3817963 38.7796324,69.6280926 38.3545514,69.6280926 C37.5056865,69.6280926 37.1147676,69.118216 37.1147676,68.3032778 C37.1147676,67.6676605 37.3867676,67.2251914 37.9727135,67.0475988 L38.9327135,66.7593889 C39.4507676,66.597784 39.4507676,66.4530309 39.4507676,66.0706235 C39.4507676,65.6467346 39.1964973,65.4008704 38.7199568,65.4008704 C37.9385514,65.4008704 37.9385514,66.1306852 37.9385514,66.2927222 L37.9385514,66.3346358 L37.2250378,66.3346358 Z" id="Fill-30" fill="#FEFEFE" mask="url(#mask-2)"></path>
                <path d="M41.0916324,64.9592654 L41.7709838,64.9592654 L41.7709838,65.4933395 L41.7882811,65.4933395 C41.9755243,65.0780926 42.4512,64.8404383 42.8927135,64.8404383 C44.0905514,64.8404383 44.0905514,65.7482778 44.0905514,66.2836481 L44.0905514,69.5092654 L43.3766054,69.5092654 L43.3766054,66.3687716 C43.3766054,66.0205 43.3515243,65.451858 42.7054703,65.451858 C42.3232,65.451858 41.8047135,65.7063642 41.8047135,66.3687716 L41.8047135,69.5092654 L41.0916324,69.5092654 L41.0916324,64.9592654 Z" id="Fill-31" fill="#FEFEFE" mask="url(#mask-2)"></path>
                <path d="M49.9666595,65.1297716 C49.9329297,64.4924259 49.6950919,63.9410679 48.9560649,63.9410679 C47.9199568,63.9410679 47.7837405,65.0783519 47.7837405,66.478784 C47.7837405,67.879216 47.9199568,69.0165 48.9560649,69.0165 C49.9926054,69.0165 50.0687135,67.7776728 50.0687135,66.9713765 L48.8708757,66.9713765 L48.8708757,66.3599568 L50.7484973,66.3599568 L50.7484973,69.5095247 L50.1880649,69.5095247 L50.1880649,68.6855123 L50.1707676,68.6855123 C50.0099027,69.2031667 49.5251459,69.6279198 48.862227,69.6279198 C47.2825514,69.6279198 47.0027676,68.1086605 47.0027676,66.478784 C47.0027676,64.9508827 47.2825514,63.3296481 48.9560649,63.3296481 C50.6974703,63.3296481 50.7398486,64.8147716 50.7484973,65.1297716 L49.9666595,65.1297716 Z" id="Fill-32" fill="#FEFEFE" mask="url(#mask-2)"></path>
                <path d="M54.0150054,67.2349568 C54.0150054,66.2497716 53.8714378,65.4006975 53.1060324,65.4006975 C52.3843027,65.4006975 52.2312216,66.2497716 52.2312216,67.2349568 C52.2312216,68.2188457 52.3756541,69.0679198 53.1060324,69.0679198 C53.8627892,69.0679198 54.0150054,68.2188457 54.0150054,67.2349568 M53.1228973,64.8402654 C54.4405189,64.8402654 54.7626811,65.9520556 54.7626811,67.2349568 C54.7626811,68.5165617 54.4314378,69.6279198 53.1228973,69.6279198 C51.806573,69.6279198 51.4839784,68.5165617 51.4839784,67.2349568 C51.4839784,65.9520556 51.8156541,64.8402654 53.1228973,64.8402654" id="Fill-33" fill="#FEFEFE" mask="url(#mask-2)"></path>
                <polygon id="Fill-34" fill="#FEFEFE" mask="url(#mask-2)" points="55.0116324 64.9592654 55.7939027 64.9592654 56.6432 68.6087716 56.6604973 68.6087716 57.5097946 64.9592654 58.2912 64.9592654 57.0596324 69.5092654 56.2449297 69.5092654"></polygon>
                <path d="M60.9668757,66.7594321 L60.9668757,66.5131358 C60.9668757,66.0032593 60.8047135,65.4004815 60.1763892,65.4004815 C59.4287135,65.4004815 59.3443892,66.3173951 59.3443892,66.5887531 L59.3443892,66.7594321 L60.9668757,66.7594321 Z M59.3180108,67.3194321 C59.3180108,68.0155432 59.3180108,69.0681358 60.1932541,69.0681358 C60.8730378,69.0681358 60.9668757,68.3547407 60.9668757,68.0155432 L61.6803892,68.0155432 C61.6803892,68.4994938 61.3906595,69.6281358 60.1508757,69.6281358 C59.0386595,69.6281358 58.5707676,68.8551111 58.5707676,67.2935062 C58.5707676,66.1557901 58.792173,64.8404815 60.1932541,64.8404815 C61.5869838,64.8404815 61.7145514,66.0538148 61.7145514,67.030358 L61.7145514,67.3194321 L59.3180108,67.3194321 Z" id="Fill-35" fill="#FEFEFE" mask="url(#mask-2)"></path>
                <path d="M62.4364541,64.9592654 L63.1499676,64.9592654 L63.1499676,65.6380926 L63.1668324,65.6380926 C63.3705081,65.2055617 63.6425081,64.8404383 64.1527784,64.8404383 C64.2972108,64.8404383 64.3984,64.8577222 64.4667243,64.891858 L64.4667243,65.5879691 C64.3984,65.578463 64.3140757,65.5538333 64.0853189,65.5538333 C63.7276973,65.5538333 63.1499676,65.8757469 63.1499676,66.6306235 L63.1499676,69.5092654 L62.4364541,69.5092654 L62.4364541,64.9592654 Z" id="Fill-36" fill="#FEFEFE" mask="url(#mask-2)"></path>
                <path d="M64.9786811,64.9592654 L65.6576,64.9592654 L65.6576,65.4933395 L65.6744649,65.4933395 C65.8612757,65.0780926 66.3378162,64.8404383 66.7784649,64.8404383 C67.9771676,64.8404383 67.9771676,65.7482778 67.9771676,66.2836481 L67.9771676,69.5092654 L67.2632216,69.5092654 L67.2632216,66.3687716 C67.2632216,66.0205 67.2381405,65.451858 66.5925189,65.451858 C66.2102486,65.451858 65.6913297,65.7063642 65.6913297,66.3687716 L65.6913297,69.5092654 L64.9786811,69.5092654 L64.9786811,64.9592654 Z" id="Fill-37" fill="#FEFEFE" mask="url(#mask-2)"></path>
                <path d="M68.870573,64.9592654 L69.5494919,64.9592654 L69.5494919,65.4933395 L69.5672216,65.4933395 C69.7540324,65.0780926 70.2297081,64.8404383 70.6712216,64.8404383 C71.1983568,64.8404383 71.5123027,65.0439568 71.6567351,65.5624753 C71.8604108,65.162784 72.2681946,64.8404383 72.7356541,64.8404383 C73.9339243,64.8404383 73.9339243,65.7482778 73.9339243,66.2836481 L73.9339243,69.5092654 L73.2204108,69.5092654 L73.2204108,66.3687716 C73.2204108,66.0205 73.1940324,65.451858 72.6080865,65.451858 C72.2768432,65.451858 71.7592216,65.6553765 71.7592216,66.3687716 L71.7592216,69.5092654 L71.0452757,69.5092654 L71.0452757,66.3687716 C71.0452757,66.0205 71.0193297,65.451858 70.4338162,65.451858 C70.1030054,65.451858 69.5840865,65.6553765 69.5840865,66.3687716 L69.5840865,69.5092654 L68.870573,69.5092654 L68.870573,64.9592654 Z" id="Fill-38" fill="#FEFEFE" mask="url(#mask-2)"></path>
                <path d="M77.0935351,66.7594321 L77.0935351,66.5131358 C77.0935351,66.0032593 76.931373,65.4004815 76.3030486,65.4004815 C75.555373,65.4004815 75.4710486,66.3173951 75.4710486,66.5887531 L75.4710486,66.7594321 L77.0935351,66.7594321 Z M75.4455351,67.3194321 C75.4455351,68.0155432 75.4455351,69.0681358 76.3207784,69.0681358 C76.9996973,69.0681358 77.0935351,68.3547407 77.0935351,68.0155432 L77.8070486,68.0155432 C77.8070486,68.4994938 77.5181838,69.6281358 76.2775351,69.6281358 C75.1653189,69.6281358 74.6982919,68.8551111 74.6982919,67.2935062 C74.6982919,66.1557901 74.9188324,64.8404815 76.3207784,64.8404815 C77.7136432,64.8404815 77.8412108,66.0538148 77.8412108,67.030358 L77.8412108,67.3194321 L75.4455351,67.3194321 Z" id="Fill-39" fill="#FEFEFE" mask="url(#mask-2)"></path>
                <path d="M78.5639784,64.9592654 L79.2428973,64.9592654 L79.2428973,65.4933395 L79.260627,65.4933395 C79.4474378,65.0780926 79.9231135,64.8404383 80.364627,64.8404383 C81.5633297,64.8404383 81.5633297,65.7482778 81.5633297,66.2836481 L81.5633297,69.5092654 L80.8493838,69.5092654 L80.8493838,66.3687716 C80.8493838,66.0205 80.8234378,65.451858 80.1778162,65.451858 C79.7955459,65.451858 79.276627,65.7063642 79.276627,66.3687716 L79.276627,69.5092654 L78.5639784,69.5092654 L78.5639784,64.9592654 Z" id="Fill-40" fill="#FEFEFE" mask="url(#mask-2)"></path>
                <path d="M82.7084108,63.6347099 L83.4219243,63.6347099 L83.4219243,64.9590926 L84.2119784,64.9590926 L84.2119784,65.5190926 L83.4219243,65.5190926 L83.4219243,68.4396481 C83.4219243,68.8047716 83.5148973,68.9495247 83.8889514,68.9495247 C84.0420324,68.9495247 84.1263568,68.9322407 84.2033297,68.9235988 L84.2033297,69.5095247 C84.1094919,69.5263765 83.9231135,69.5596481 83.6256,69.5596481 C82.886573,69.5596481 82.7084108,69.2545864 82.7084108,68.6600185 L82.7084108,65.5190926 L82.0454919,65.5190926 L82.0454919,64.9590926 L82.7084108,64.9590926 L82.7084108,63.6347099 Z" id="Fill-41" fill="#FEFEFE" mask="url(#mask-2)"></path>
                <polygon id="Fill-42" fill="#FEFEFE" mask="url(#mask-2)" points="86.7589189 69.5091358 87.5065946 69.5091358 87.5065946 63.4480864 86.7589189 63.4480864"></polygon>
                <path d="M88.4710919,64.9592654 L89.1500108,64.9592654 L89.1500108,65.4933395 L89.1668757,65.4933395 C89.3536865,65.0780926 89.830227,64.8404383 90.2708757,64.8404383 C91.4695784,64.8404383 91.4695784,65.7482778 91.4695784,66.2836481 L91.4695784,69.5092654 L90.7556324,69.5092654 L90.7556324,66.3687716 C90.7556324,66.0205 90.7305514,65.451858 90.0849297,65.451858 C89.7026595,65.451858 89.1837405,65.7063642 89.1837405,66.3687716 L89.1837405,69.5092654 L88.4710919,69.5092654 L88.4710919,64.9592654 Z" id="Fill-43" fill="#FEFEFE" mask="url(#mask-2)"></path>
                <path d="M92.3476757,69.5091358 L93.0611892,69.5091358 L93.0611892,64.9591358 L92.3476757,64.9591358 L92.3476757,69.5091358 Z M92.3476757,64.2634568 L93.0611892,64.2634568 L93.0611892,63.4480864 L92.3476757,63.4480864 L92.3476757,64.2634568 Z" id="Fill-44" fill="#FEFEFE" mask="url(#mask-2)"></path>
                <path d="M94.2498162,63.6347099 L94.9641946,63.6347099 L94.9641946,64.9590926 L95.7542486,64.9590926 L95.7542486,65.5190926 L94.9641946,65.5190926 L94.9641946,68.4396481 C94.9641946,68.8047716 95.0571676,68.9495247 95.4312216,68.9495247 C95.5834378,68.9495247 95.6694919,68.9322407 95.7456,68.9235988 L95.7456,69.5095247 C95.6517622,69.5263765 95.4645189,69.5596481 95.1678703,69.5596481 C94.4279784,69.5596481 94.2498162,69.2545864 94.2498162,68.6600185 L94.2498162,65.5190926 L93.5877622,65.5190926 L93.5877622,64.9590926 L94.2498162,64.9590926 L94.2498162,63.6347099 Z" id="Fill-45" fill="#FEFEFE" mask="url(#mask-2)"></path>
                <path d="M96.2802162,69.5091358 L96.9928649,69.5091358 L96.9928649,64.9591358 L96.2802162,64.9591358 L96.2802162,69.5091358 Z M96.2802162,64.2634568 L96.9928649,64.2634568 L96.9928649,63.4480864 L96.2802162,63.4480864 L96.2802162,64.2634568 Z" id="Fill-46" fill="#FEFEFE" mask="url(#mask-2)"></path>
                <path d="M99.9947243,67.0303148 C99.7305081,67.3094506 99.1026162,67.3695123 98.7800216,67.5656852 C98.5512649,67.7100062 98.4323459,67.8880309 98.4323459,68.2872901 C98.4323459,68.7457469 98.5927784,69.0680926 99.0775351,69.0680926 C99.5445622,69.0680926 99.9947243,68.6688333 99.9947243,68.2017346 L99.9947243,67.0303148 Z M97.7945081,66.3346358 C97.7945081,65.2988951 98.2355892,64.8404383 99.3231568,64.8404383 C100.708238,64.8404383 100.708238,65.6722284 100.708238,66.1479691 L100.708238,68.6856852 C100.708238,68.8723519 100.708238,69.0512407 100.928778,69.0512407 C101.021751,69.0512407 101.064995,69.0339568 101.099589,69.0080309 L101.099589,69.5179074 C101.04813,69.5261173 100.861319,69.559821 100.682292,69.559821 C100.411157,69.559821 100.071697,69.559821 100.037103,68.9747593 L100.020238,68.9747593 C99.7910486,69.3817963 99.3495351,69.6280926 98.9235892,69.6280926 C98.0751568,69.6280926 97.6838054,69.118216 97.6838054,68.3032778 C97.6838054,67.6676605 97.9558054,67.2251914 98.5421838,67.0475988 L99.5021838,66.7593889 C100.020238,66.597784 100.020238,66.4530309 100.020238,66.0706235 C100.020238,65.6467346 99.7651027,65.4008704 99.289427,65.4008704 C98.5080216,65.4008704 98.5080216,66.1306852 98.5080216,66.2927222 L98.5080216,66.3346358 L97.7945081,66.3346358 Z" id="Fill-47" fill="#FEFEFE" mask="url(#mask-2)"></path>
                <path d="M101.877319,63.6347099 L102.590832,63.6347099 L102.590832,64.9590926 L103.380886,64.9590926 L103.380886,65.5190926 L102.590832,65.5190926 L102.590832,68.4396481 C102.590832,68.8047716 102.683805,68.9495247 103.057859,68.9495247 C103.211805,68.9495247 103.29613,68.9322407 103.372238,68.9235988 L103.372238,69.5095247 C103.279265,69.5263765 103.092886,69.5596481 102.794508,69.5596481 C102.056346,69.5596481 101.877319,69.2545864 101.877319,68.6600185 L101.877319,65.5190926 L101.215265,65.5190926 L101.215265,64.9590926 L101.877319,64.9590926 L101.877319,63.6347099 Z" id="Fill-48" fill="#FEFEFE" mask="url(#mask-2)"></path>
                <path d="M103.907027,69.5091358 L104.620541,69.5091358 L104.620541,64.9591358 L103.907027,64.9591358 L103.907027,69.5091358 Z M103.907027,64.2634568 L104.620541,64.2634568 L104.620541,63.4480864 L103.907027,63.4480864 L103.907027,64.2634568 Z" id="Fill-49" fill="#FEFEFE" mask="url(#mask-2)"></path>
                <polygon id="Fill-50" fill="#FEFEFE" mask="url(#mask-2)" points="105.184778 64.9592654 105.966184 64.9592654 106.815481 68.6087716 106.831914 68.6087716 107.681211 64.9592654 108.462616 64.9592654 107.231049 69.5092654 106.416346 69.5092654"></polygon>
                <path d="M111.138335,66.7594321 L111.138335,66.5131358 C111.138335,66.0032593 110.977038,65.4004815 110.348714,65.4004815 C109.601038,65.4004815 109.515849,66.3173951 109.515849,66.5887531 L109.515849,66.7594321 L111.138335,66.7594321 Z M109.490335,67.3194321 C109.490335,68.0155432 109.490335,69.0681358 110.364714,69.0681358 C111.045362,69.0681358 111.138335,68.3547407 111.138335,68.0155432 L111.851849,68.0155432 C111.851849,68.4994938 111.562984,69.6281358 110.3232,69.6281358 C109.210984,69.6281358 108.742227,68.8551111 108.742227,67.2935062 C108.742227,66.1557901 108.963632,64.8404815 110.364714,64.8404815 C111.758443,64.8404815 111.886011,66.0538148 111.886011,67.030358 L111.886011,67.3194321 L109.490335,67.3194321 Z" id="Fill-51" fill="#FEFEFE" mask="url(#mask-2)"></path>
                <path d="M2.85431351,58.0743765 L111.680692,58.0743765" id="Fill-52" fill="#FEFEFE" mask="url(#mask-2)"></path>
                <polygon id="Fill-53" fill="#FEFEFE" mask="url(#mask-2)" points="2.85405405 58.2164815 111.680432 58.2164815 111.680432 57.9664815 2.85405405 57.9664815"></polygon>
            </g>
        </g>
    </g>
</svg>