<?xml version="1.0" encoding="UTF-8"?>
<svg width="149px" height="93px" viewBox="0 0 149 93" version="1.1" xmlns="http://www.w3.org/2000/svg" xmlns:xlink="http://www.w3.org/1999/xlink">
    <!-- Generator: Sketch 52.1 (67048) - http://www.bohemiancoding.com/sketch -->
    <title>PHN Brisbane North Logo_outline</title>
    <desc>Created with Sketch.</desc>
    <g id="PHN-Brisbane-North-Logo_outline" stroke="none" stroke-width="1" fill="none" fill-rule="evenodd">
        <path d="M20.491,64.637 L22.262,64.637 C23.876,64.637 25.273,64.118 25.273,62.879 C25.273,61.424 24.207,60.647 22.522,60.647 L20.491,60.647 L20.491,64.637 Z M20.491,59.753 L22.493,59.753 C23.401,59.753 24.567,59.221 24.567,57.838 C24.567,56.772 23.444,56.34 22.075,56.34 L20.491,56.34 L20.491,59.753 Z M23.905,60.099 C25.417,60.401 26.31,61.468 26.31,62.879 C26.31,64.78 24.424,65.529 22.262,65.529 L19.483,65.529 L19.483,55.446 L22.075,55.446 C24.006,55.446 25.604,56.109 25.604,57.838 C25.604,58.946 24.927,59.855 23.905,60.07 L23.905,60.099 Z" id="Fill-1" fill="#003555"></path>
        <path d="M29.868,59.926 L31.553,59.926 C33.196,59.926 34.089,59.292 34.089,58.111 C34.089,56.916 33.153,56.34 31.553,56.34 L29.868,56.34 L29.868,59.926 Z M31.799,60.819 C31.726,60.819 31.64,60.819 29.868,60.819 L29.868,65.529 L28.86,65.529 L28.86,55.446 L31.553,55.446 C33.8,55.446 35.126,56.282 35.126,58.111 C35.126,59.523 34.334,60.401 32.864,60.704 L35.716,65.529 L34.593,65.529 L31.799,60.819 Z" id="Fill-2" fill="#003555"></path>
        <polygon id="Fill-3" fill="#003555" points="37.937 65.529 38.945 65.529 38.945 55.446 37.937 55.446"></polygon>
        <path d="M46.762,56.887 C46.762,56.887 46.1,56.195 44.731,56.195 C43.493,56.195 42.629,56.93 42.629,57.881 C42.629,59.119 43.694,59.465 44.789,59.998 C46.201,60.69 47.641,61.18 47.641,63.124 C47.641,64.522 46.489,65.702 44.588,65.702 C42.528,65.702 41.389,64.406 41.389,64.406 L42.081,63.801 C42.081,63.801 42.945,64.78 44.588,64.78 C45.84,64.78 46.604,64.046 46.604,63.124 C46.604,61.799 45.394,61.353 44.328,60.834 C42.988,60.171 41.591,59.638 41.591,57.881 C41.591,56.411 42.873,55.274 44.731,55.274 C46.489,55.274 47.425,56.253 47.425,56.253 L46.762,56.887" id="Fill-4" fill="#003555"></path>
        <path d="M51.094,64.637 L52.866,64.637 C54.479,64.637 55.877,64.118 55.877,62.879 C55.877,61.424 54.811,60.647 53.126,60.647 L51.094,60.647 L51.094,64.637 Z M51.094,59.753 L53.096,59.753 C54.004,59.753 55.171,59.221 55.171,57.838 C55.171,56.772 54.048,56.34 52.679,56.34 L51.094,56.34 L51.094,59.753 Z M54.508,60.099 C56.021,60.401 56.914,61.468 56.914,62.879 C56.914,64.78 55.027,65.529 52.866,65.529 L50.086,65.529 L50.086,55.446 L52.679,55.446 C54.609,55.446 56.208,56.109 56.208,57.838 C56.208,58.946 55.531,59.855 54.508,60.07 L54.508,60.099 Z" id="Fill-5" fill="#003555"></path>
        <path d="M62.992,56.656 L60.702,61.957 L65.268,61.957 L63.021,56.656 L62.992,56.656 Z M59.161,65.529 L58.109,65.529 L62.473,55.446 L63.54,55.446 L67.861,65.529 L66.795,65.529 L65.657,62.851 L60.313,62.851 L59.161,65.529 Z" id="Fill-6" fill="#003555"></path>
        <polyline id="Fill-7" fill="#003555" points="77.267 64.377 77.267 55.446 78.275 55.446 78.275 65.529 76.907 65.529 70.886 56.613 70.857 56.613 70.857 65.529 69.849 65.529 69.849 55.446 71.217 55.446 77.238 64.377 77.267 64.377"></polyline>
        <polyline id="Fill-8" fill="#003555" points="87.946 64.637 87.946 65.529 81.522 65.529 81.522 55.446 87.774 55.446 87.774 56.34 82.53 56.34 82.53 59.84 87.428 59.84 87.428 60.732 82.53 60.732 82.53 64.637 87.946 64.637"></polyline>
        <polyline id="Fill-9" fill="#003555" points="102.505 64.377 102.505 55.446 103.513 55.446 103.513 65.529 102.145 65.529 96.124 56.613 96.095 56.613 96.095 65.529 95.087 65.529 95.087 55.446 96.456 55.446 102.476 64.377 102.505 64.377"></polyline>
        <path d="M111.276,56.195 C108.914,56.195 107.142,58.011 107.142,60.488 C107.142,62.966 108.914,64.78 111.276,64.78 C113.639,64.78 115.411,62.966 115.411,60.488 C115.411,58.011 113.639,56.195 111.276,56.195 Z M111.276,65.702 C108.324,65.702 106.105,63.498 106.105,60.488 C106.105,57.478 108.324,55.274 111.276,55.274 C114.229,55.274 116.448,57.478 116.448,60.488 C116.448,63.498 114.229,65.702 111.276,65.702 Z" id="Fill-10" fill="#003555"></path>
        <path d="M120.055,59.926 L121.741,59.926 C123.382,59.926 124.276,59.292 124.276,58.111 C124.276,56.916 123.339,56.34 121.741,56.34 L120.055,56.34 L120.055,59.926 Z M121.985,60.819 C121.914,60.819 121.827,60.819 120.055,60.819 L120.055,65.529 L119.047,65.529 L119.047,55.446 L121.741,55.446 C123.988,55.446 125.313,56.282 125.313,58.111 C125.313,59.523 124.521,60.401 123.051,60.704 L125.903,65.529 L124.78,65.529 L121.985,60.819 Z" id="Fill-11" fill="#003555"></path>
        <polyline id="Fill-12" fill="#003555" points="126.917 55.446 134.695 55.446 134.695 56.34 131.31 56.34 131.31 65.529 130.302 65.529 130.302 56.34 126.917 56.34 126.917 55.446"></polyline>
        <polyline id="Fill-13" fill="#003555" points="136.783 65.529 136.783 55.446 137.791 55.446 137.791 59.855 143.322 59.855 143.322 55.446 144.331 55.446 144.331 65.529 143.322 65.529 143.322 60.747 137.791 60.747 137.791 65.529 136.783 65.529"></polyline>
        <path d="M20.389,39.73 C17.623,39.73 15.243,38.315 13.635,36.129 L13.635,26.996 C15.179,24.808 17.623,23.522 20.389,23.522 C24.762,23.522 28.364,26.996 28.364,31.626 C28.364,36.257 24.762,39.73 20.389,39.73 Z M22.961,14.775 C18.138,14.775 13.699,16.126 10.998,19.47 L10.869,19.47 C9.519,16.705 5.981,15.547 2.83,15.547 C1.094,15.547 0,15.998 0,15.998 L0.386,24.358 C0.386,24.358 0.644,24.294 1.029,24.294 C2.444,24.294 3.855,25.516 3.855,28.797 L3.855,60.775 C3.854,60.819 3.855,60.86 3.855,60.905 C3.855,63.606 6.036,65.796 8.738,65.796 C11.433,65.796 13.618,63.615 13.627,60.921 L13.635,60.921 L13.635,44.553 L13.764,44.553 C15.629,46.354 17.816,47.577 20.389,48.091 C21.417,48.348 22.575,48.477 23.733,48.413 C31.773,48.027 38.204,40.952 38.204,31.626 C38.204,21.979 31.322,14.775 22.961,14.775 Z" id="Fill-14" fill="#003555"></path>
        <path d="M63.077,14.904 C61.791,14.839 60.44,14.904 59.154,15.161 C56.581,15.675 54.265,17.09 52.529,19.149 L52.4,19.149 L52.4,0.754 L42.625,0.754 L42.625,47.705 L52.4,47.705 L52.4,27.059 C54.008,24.68 55.938,23.522 58.832,23.522 C62.82,23.522 64.878,26.609 64.878,31.304 L64.878,47.705 L74.654,47.705 L74.654,32.269 C74.654,30.339 74.525,28.539 74.268,26.867 C73.303,19.856 69.573,15.29 63.077,14.904" id="Fill-15" fill="#003555"></path>
        <path d="M99.043,14.775 C94.991,14.775 90.939,16.576 89.202,20.371 L89.074,20.371 L88.881,15.547 L79.813,15.547 L79.813,47.705 L89.588,47.705 L89.588,27.059 C91.197,24.68 93.125,23.522 96.02,23.522 C100.007,23.522 102.066,26.609 102.066,31.304 L102.066,47.705 L111.842,47.705 L111.842,31.304 C111.842,21.4 107.533,14.775 99.043,14.775" id="Fill-16" fill="#003555"></path>
        <path d="M5.681,89.829 L7.84,89.829 L6.817,85.949 L6.794,85.949 L5.681,89.829 Z M6.164,84.813 L7.491,84.813 L9.651,92.843 L8.616,92.843 L8.042,90.639 L5.478,90.639 L4.882,92.843 L3.848,92.843 L6.164,84.813 Z" id="Fill-17" fill="#003555"></path>
        <path d="M10.381,86.815 L11.28,86.815 L11.28,87.524 L11.303,87.524 C11.55,86.973 12.18,86.657 12.765,86.657 C14.351,86.657 14.351,87.861 14.351,88.569 L14.351,92.843 L13.406,92.843 L13.406,88.682 C13.406,88.221 13.372,87.468 12.518,87.468 C12.011,87.468 11.325,87.805 11.325,88.682 L11.325,92.843 L10.381,92.843 L10.381,86.815" id="Fill-18" fill="#003555"></path>
        <path d="M19.409,89.829 L21.568,89.829 L20.545,85.949 L20.522,85.949 L19.409,89.829 Z M19.892,84.813 L21.219,84.813 L23.379,92.843 L22.344,92.843 L21.77,90.639 L19.206,90.639 L18.611,92.843 L17.576,92.843 L19.892,84.813 Z" id="Fill-19" fill="#003555"></path>
        <path d="M27.956,92.843 L27.056,92.843 L27.056,92.135 L27.034,92.135 C26.787,92.686 26.157,93 25.572,93 C23.987,93 23.987,91.797 23.987,91.089 L23.987,86.815 L24.931,86.815 L24.931,90.976 C24.931,91.438 24.965,92.19 25.819,92.19 C26.325,92.19 27.011,91.854 27.011,90.976 L27.011,86.815 L27.956,86.815 L27.956,92.843" id="Fill-20" fill="#003555"></path>
        <path d="M31.738,88.581 C31.738,87.816 31.536,87.399 30.85,87.399 C30.546,87.399 29.872,87.479 29.872,88.322 C29.872,89.03 30.614,89.165 31.356,89.413 C32.087,89.66 32.829,89.919 32.829,91.111 C32.829,92.382 32.008,93 30.884,93 C28.837,93 28.815,91.482 28.815,90.863 L29.759,90.863 C29.759,91.595 29.961,92.258 30.884,92.258 C31.187,92.258 31.884,92.111 31.884,91.257 C31.884,90.447 31.142,90.278 30.411,90.031 C29.68,89.784 28.927,89.57 28.927,88.322 C28.927,87.197 29.804,86.657 30.85,86.657 C32.604,86.657 32.672,87.872 32.683,88.581 L31.738,88.581" id="Fill-21" fill="#003555"></path>
        <path d="M34.084,85.061 L35.028,85.061 L35.028,86.815 L36.074,86.815 L36.074,87.558 L35.028,87.558 L35.028,91.426 C35.028,91.909 35.152,92.101 35.647,92.101 C35.849,92.101 35.962,92.078 36.063,92.066 L36.063,92.843 C35.94,92.865 35.692,92.91 35.299,92.91 C34.32,92.91 34.084,92.506 34.084,91.718 L34.084,87.558 L33.207,87.558 L33.207,86.815 L34.084,86.815 L34.084,85.061" id="Fill-22" fill="#003555"></path>
        <path d="M36.746,86.815 L37.691,86.815 L37.691,87.715 L37.713,87.715 C37.983,87.142 38.343,86.657 39.018,86.657 C39.209,86.657 39.344,86.68 39.434,86.726 L39.434,87.648 C39.344,87.636 39.232,87.603 38.928,87.603 C38.455,87.603 37.691,88.029 37.691,89.03 L37.691,92.843 L36.746,92.843 L36.746,86.815" id="Fill-23" fill="#003555"></path>
        <path d="M42.904,89.559 C42.555,89.93 41.723,90.009 41.296,90.268 C40.992,90.459 40.835,90.695 40.835,91.224 C40.835,91.831 41.049,92.258 41.69,92.258 C42.308,92.258 42.904,91.729 42.904,91.111 L42.904,89.559 Z M39.991,88.637 C39.991,87.265 40.576,86.657 42.016,86.657 C43.849,86.657 43.849,87.76 43.849,88.39 L43.849,91.752 C43.849,91.999 43.849,92.235 44.141,92.235 C44.265,92.235 44.321,92.213 44.366,92.18 L44.366,92.854 C44.299,92.865 44.051,92.91 43.815,92.91 C43.455,92.91 43.006,92.91 42.961,92.135 L42.938,92.135 C42.634,92.674 42.049,93 41.487,93 C40.362,93 39.845,92.325 39.845,91.246 C39.845,90.402 40.205,89.817 40.981,89.581 L42.252,89.199 C42.938,88.985 42.938,88.794 42.938,88.288 C42.938,87.726 42.601,87.399 41.971,87.399 C40.936,87.399 40.936,88.367 40.936,88.581 L40.936,88.637 L39.991,88.637 Z" id="Fill-24" fill="#003555"></path>
        <polygon id="Fill-25" fill="#003555" points="45.14 92.842 46.085 92.842 46.085 84.813 45.14 84.813"></polygon>
        <path d="M47.274,92.842 L48.219,92.842 L48.219,86.815 L47.274,86.815 L47.274,92.842 Z M47.274,85.892 L48.219,85.892 L48.219,84.813 L47.274,84.813 L47.274,85.892 Z" id="Fill-26" fill="#003555"></path>
        <path d="M52.192,89.559 C51.843,89.93 51.011,90.009 50.584,90.268 C50.28,90.459 50.123,90.695 50.123,91.224 C50.123,91.831 50.336,92.258 50.977,92.258 C51.596,92.258 52.192,91.729 52.192,91.111 L52.192,89.559 Z M49.279,88.637 C49.279,87.265 49.864,86.657 51.303,86.657 C53.136,86.657 53.136,87.76 53.136,88.39 L53.136,91.752 C53.136,91.999 53.136,92.235 53.429,92.235 C53.552,92.235 53.609,92.213 53.653,92.18 L53.653,92.854 C53.586,92.865 53.339,92.91 53.103,92.91 C52.743,92.91 52.293,92.91 52.248,92.135 L52.225,92.135 C51.922,92.674 51.337,93 50.775,93 C49.65,93 49.133,92.325 49.133,91.246 C49.133,90.402 49.493,89.817 50.269,89.581 L51.54,89.199 C52.225,88.985 52.225,88.794 52.225,88.288 C52.225,87.726 51.888,87.399 51.258,87.399 C50.224,87.399 50.224,88.367 50.224,88.581 L50.224,88.637 L49.279,88.637 Z" id="Fill-27" fill="#003555"></path>
        <path d="M54.398,86.815 L55.297,86.815 L55.297,87.524 L55.32,87.524 C55.567,86.973 56.197,86.657 56.781,86.657 C58.367,86.657 58.367,87.861 58.367,88.569 L58.367,92.843 L57.423,92.843 L57.423,88.682 C57.423,88.221 57.389,87.468 56.534,87.468 C56.028,87.468 55.342,87.805 55.342,88.682 L55.342,92.843 L54.398,92.843 L54.398,86.815" id="Fill-28" fill="#003555"></path>
        <path d="M66.147,87.04 C66.102,86.196 65.787,85.466 64.809,85.466 C63.437,85.466 63.257,86.973 63.257,88.828 C63.257,90.684 63.437,92.19 64.809,92.19 C66.18,92.19 66.282,90.549 66.282,89.48 L64.696,89.48 L64.696,88.671 L67.181,88.671 L67.181,92.843 L66.439,92.843 L66.439,91.752 L66.417,91.752 C66.203,92.438 65.562,93 64.685,93 C62.593,93 62.222,90.987 62.222,88.828 C62.222,86.804 62.593,84.656 64.809,84.656 C67.114,84.656 67.17,86.624 67.181,87.04 L66.147,87.04" id="Fill-29" fill="#003555"></path>
        <path d="M71.506,89.829 C71.506,88.524 71.315,87.399 70.303,87.399 C69.347,87.399 69.145,88.524 69.145,89.829 C69.145,91.134 69.336,92.258 70.303,92.258 C71.304,92.258 71.506,91.134 71.506,89.829 Z M70.325,86.657 C72.068,86.657 72.496,88.131 72.496,89.829 C72.496,91.527 72.057,93 70.325,93 C68.582,93 68.155,91.527 68.155,89.829 C68.155,88.131 68.593,86.657 70.325,86.657 Z" id="Fill-30" fill="#003555"></path>
        <polyline id="Fill-31" fill="#003555" points="72.826 86.815 73.86 86.815 74.985 91.65 75.007 91.65 76.132 86.815 77.167 86.815 75.536 92.843 74.457 92.843 72.826 86.815"></polyline>
        <path d="M80.708,89.199 L80.708,88.873 C80.708,88.198 80.494,87.399 79.662,87.399 C78.673,87.399 78.56,88.614 78.56,88.975 L78.56,89.199 L80.708,89.199 Z M78.526,89.941 C78.526,90.863 78.526,92.258 79.685,92.258 C80.585,92.258 80.708,91.313 80.708,90.863 L81.653,90.863 C81.653,91.505 81.271,93 79.629,93 C78.155,93 77.537,91.977 77.537,89.907 C77.537,88.4 77.829,86.657 79.685,86.657 C81.529,86.657 81.698,88.266 81.698,89.559 L81.698,89.941 L78.526,89.941 Z" id="Fill-32" fill="#003555"></path>
        <path d="M82.654,86.815 L83.599,86.815 L83.599,87.715 L83.621,87.715 C83.891,87.142 84.251,86.657 84.926,86.657 C85.117,86.657 85.252,86.68 85.342,86.726 L85.342,87.648 C85.252,87.636 85.14,87.603 84.836,87.603 C84.363,87.603 83.599,88.029 83.599,89.03 L83.599,92.843 L82.654,92.843 L82.654,86.815" id="Fill-33" fill="#003555"></path>
        <path d="M86.019,86.815 L86.919,86.815 L86.919,87.524 L86.941,87.524 C87.189,86.973 87.818,86.657 88.403,86.657 C89.989,86.657 89.989,87.861 89.989,88.569 L89.989,92.843 L89.044,92.843 L89.044,88.682 C89.044,88.221 89.01,87.468 88.156,87.468 C87.65,87.468 86.964,87.805 86.964,88.682 L86.964,92.843 L86.019,92.843 L86.019,86.815" id="Fill-34" fill="#003555"></path>
        <path d="M91.172,86.815 L92.071,86.815 L92.071,87.524 L92.094,87.524 C92.341,86.973 92.971,86.657 93.556,86.657 C94.253,86.657 94.669,86.928 94.86,87.613 C95.13,87.085 95.67,86.657 96.288,86.657 C97.874,86.657 97.874,87.861 97.874,88.569 L97.874,92.843 L96.929,92.843 L96.929,88.682 C96.929,88.221 96.896,87.468 96.12,87.468 C95.681,87.468 94.995,87.737 94.995,88.682 L94.995,92.843 L94.05,92.843 L94.05,88.682 C94.05,88.221 94.017,87.468 93.241,87.468 C92.802,87.468 92.116,87.737 92.116,88.682 L92.116,92.843 L91.172,92.843 L91.172,86.815" id="Fill-35" fill="#003555"></path>
        <path d="M102.057,89.199 L102.057,88.873 C102.057,88.198 101.843,87.399 101.011,87.399 C100.022,87.399 99.909,88.614 99.909,88.975 L99.909,89.199 L102.057,89.199 Z M99.876,89.941 C99.876,90.863 99.876,92.258 101.034,92.258 C101.934,92.258 102.057,91.313 102.057,90.863 L103.002,90.863 C103.002,91.505 102.62,93 100.978,93 C99.505,93 98.886,91.977 98.886,89.907 C98.886,88.4 99.178,86.657 101.034,86.657 C102.878,86.657 103.047,88.266 103.047,89.559 L103.047,89.941 L99.876,89.941 Z" id="Fill-36" fill="#003555"></path>
        <path d="M104.004,86.815 L104.903,86.815 L104.903,87.524 L104.926,87.524 C105.173,86.973 105.803,86.657 106.388,86.657 C107.974,86.657 107.974,87.861 107.974,88.569 L107.974,92.843 L107.029,92.843 L107.029,88.682 C107.029,88.221 106.995,87.468 106.141,87.468 C105.634,87.468 104.948,87.805 104.948,88.682 L104.948,92.843 L104.004,92.843 L104.004,86.815" id="Fill-37" fill="#003555"></path>
        <path d="M109.49,85.061 L110.435,85.061 L110.435,86.815 L111.481,86.815 L111.481,87.558 L110.435,87.558 L110.435,91.426 C110.435,91.909 110.558,92.101 111.053,92.101 C111.255,92.101 111.368,92.078 111.469,92.066 L111.469,92.843 C111.346,92.865 111.098,92.91 110.705,92.91 C109.726,92.91 109.49,92.506 109.49,91.718 L109.49,87.558 L108.613,87.558 L108.613,86.815 L109.49,86.815 L109.49,85.061" id="Fill-38" fill="#003555"></path>
        <polygon id="Fill-39" fill="#003555" points="114.853 92.842 115.842 92.842 115.842 84.813 114.853 84.813"></polygon>
        <path d="M117.119,86.815 L118.018,86.815 L118.018,87.524 L118.041,87.524 C118.288,86.973 118.918,86.657 119.503,86.657 C121.089,86.657 121.089,87.861 121.089,88.569 L121.089,92.843 L120.144,92.843 L120.144,88.682 C120.144,88.221 120.11,87.468 119.255,87.468 C118.749,87.468 118.063,87.805 118.063,88.682 L118.063,92.843 L117.119,92.843 L117.119,86.815" id="Fill-40" fill="#003555"></path>
        <path d="M122.251,92.842 L123.196,92.842 L123.196,86.815 L122.251,86.815 L122.251,92.842 Z M122.251,85.892 L123.196,85.892 L123.196,84.813 L122.251,84.813 L122.251,85.892 Z" id="Fill-41" fill="#003555"></path>
        <path d="M124.769,85.061 L125.714,85.061 L125.714,86.815 L126.76,86.815 L126.76,87.558 L125.714,87.558 L125.714,91.426 C125.714,91.909 125.838,92.101 126.333,92.101 C126.535,92.101 126.648,92.078 126.749,92.066 L126.749,92.843 C126.625,92.865 126.378,92.91 125.984,92.91 C125.005,92.91 124.769,92.506 124.769,91.718 L124.769,87.558 L123.892,87.558 L123.892,86.815 L124.769,86.815 L124.769,85.061" id="Fill-42" fill="#003555"></path>
        <path d="M127.456,92.842 L128.401,92.842 L128.401,86.815 L127.456,86.815 L127.456,92.842 Z M127.456,85.892 L128.401,85.892 L128.401,84.813 L127.456,84.813 L127.456,85.892 Z" id="Fill-43" fill="#003555"></path>
        <path d="M132.374,89.559 C132.026,89.93 131.193,90.009 130.766,90.268 C130.463,90.459 130.305,90.695 130.305,91.224 C130.305,91.831 130.519,92.258 131.16,92.258 C131.778,92.258 132.374,91.729 132.374,91.111 L132.374,89.559 Z M129.462,88.637 C129.462,87.265 130.047,86.657 131.486,86.657 C133.319,86.657 133.319,87.76 133.319,88.39 L133.319,91.752 C133.319,91.999 133.319,92.235 133.611,92.235 C133.735,92.235 133.791,92.213 133.836,92.18 L133.836,92.854 C133.769,92.865 133.522,92.91 133.285,92.91 C132.925,92.91 132.476,92.91 132.431,92.135 L132.408,92.135 C132.105,92.674 131.52,93 130.957,93 C129.833,93 129.316,92.325 129.316,91.246 C129.316,90.402 129.675,89.817 130.451,89.581 L131.722,89.199 C132.408,88.985 132.408,88.794 132.408,88.288 C132.408,87.726 132.071,87.399 131.441,87.399 C130.406,87.399 130.406,88.367 130.406,88.581 L130.406,88.637 L129.462,88.637 Z" id="Fill-44" fill="#003555"></path>
        <path d="M134.867,85.061 L135.812,85.061 L135.812,86.815 L136.858,86.815 L136.858,87.558 L135.812,87.558 L135.812,91.426 C135.812,91.909 135.935,92.101 136.43,92.101 C136.632,92.101 136.745,92.078 136.846,92.066 L136.846,92.843 C136.723,92.865 136.475,92.91 136.082,92.91 C135.103,92.91 134.867,92.506 134.867,91.718 L134.867,87.558 L133.99,87.558 L133.99,86.815 L134.867,86.815 L134.867,85.061" id="Fill-45" fill="#003555"></path>
        <path d="M137.554,92.842 L138.499,92.842 L138.499,86.815 L137.554,86.815 L137.554,92.842 Z M137.554,85.892 L138.499,85.892 L138.499,84.813 L137.554,84.813 L137.554,85.892 Z" id="Fill-46" fill="#003555"></path>
        <polyline id="Fill-47" fill="#003555" points="139.244 86.815 140.279 86.815 141.403 91.65 141.426 91.65 142.55 86.815 143.585 86.815 141.955 92.843 140.875 92.843 139.244 86.815"></polyline>
        <path d="M147.127,89.199 L147.127,88.873 C147.127,88.198 146.913,87.399 146.081,87.399 C145.091,87.399 144.979,88.614 144.979,88.975 L144.979,89.199 L147.127,89.199 Z M144.945,89.941 C144.945,90.863 144.945,92.258 146.103,92.258 C147.003,92.258 147.127,91.313 147.127,90.863 L148.071,90.863 C148.071,91.505 147.689,93 146.047,93 C144.574,93 143.955,91.977 143.955,89.907 C143.955,88.4 144.248,86.657 146.103,86.657 C147.947,86.657 148.116,88.266 148.116,89.559 L148.116,89.941 L144.945,89.941 Z" id="Fill-48" fill="#003555"></path>
        <path d="M3.778,77.694 L147.845,77.694" id="Stroke-49" stroke="#003555" stroke-width="0.5"></path>
    </g>
</svg>